<?xml version="1.0" encoding="UTF-8" standalone="no"?>
<!-- Created with Inkscape (http://www.inkscape.org/) -->

<svg
   xmlns:dc="http://purl.org/dc/elements/1.1/"
   xmlns:cc="http://creativecommons.org/ns#"
   xmlns:rdf="http://www.w3.org/1999/02/22-rdf-syntax-ns#"
   xmlns:svg="http://www.w3.org/2000/svg"
   xmlns="http://www.w3.org/2000/svg"
   xmlns:sodipodi="http://sodipodi.sourceforge.net/DTD/sodipodi-0.dtd"
   xmlns:inkscape="http://www.inkscape.org/namespaces/inkscape"
   sodipodi:docname="Planos_para_cortar2.svg"
   inkscape:version="0.92.4 (unknown)"
   id="svg8"
   version="1.1"
   viewBox="0 0 210 297"
   height="297mm"
   width="210mm">
  <defs
     id="defs2" />
  <sodipodi:namedview
     inkscape:window-maximized="1"
     inkscape:window-y="27"
     inkscape:window-x="0"
     inkscape:window-height="656"
     inkscape:window-width="1280"
     showborder="false"
     inkscape:guide-bbox="true"
     showguides="false"
     showgrid="false"
     inkscape:current-layer="layer6"
     inkscape:document-units="mm"
     inkscape:cy="19.663199"
     inkscape:cx="-416.68103"
     inkscape:zoom="0.5"
     inkscape:pageshadow="2"
     inkscape:pageopacity="0.0"
     borderopacity="1.0"
     bordercolor="#666666"
     pagecolor="#ffffff"
     id="base">
    <inkscape:grid
       type="xygrid"
       id="grid815" />
    <sodipodi:guide
       position="-47.624999,0"
       orientation="1,0"
       id="guide5175"
       inkscape:locked="false" />
    <sodipodi:guide
       position="47.624999,-11.90625"
       orientation="1,0"
       id="guide5194"
       inkscape:locked="false" />
    <sodipodi:guide
       position="-34.395833,60.854167"
       orientation="1,0"
       id="guide5383"
       inkscape:locked="false" />
    <sodipodi:guide
       position="34.395833,31.750001"
       orientation="1,0"
       id="guide5385"
       inkscape:locked="false" />
    <sodipodi:guide
       position="0,-92.604169"
       orientation="1,0"
       id="guide5393"
       inkscape:locked="false" />
    <sodipodi:guide
       position="3.9687499,88.635419"
       orientation="0,1"
       id="guide61"
       inkscape:locked="false" />
    <sodipodi:guide
       position="-2.6458333,-174.625"
       orientation="0,1"
       id="guide63"
       inkscape:locked="false" />
    <sodipodi:guide
       position="-248.70833,-31.750001"
       orientation="-0.70710678,0.70710678"
       id="guide65"
       inkscape:locked="false"
       inkscape:label=""
       inkscape:color="rgb(0,0,255)" />
    <sodipodi:guide
       position="37.041666,-19.843751"
       orientation="0,1"
       id="guide137"
       inkscape:locked="false" />
    <sodipodi:guide
       position="20.636983,-104.42149"
       orientation="0,1"
       id="guide186"
       inkscape:locked="false" />
    <sodipodi:guide
       position="29.451947,28.04496"
       orientation="0,1"
       id="guide233"
       inkscape:locked="false" />
    <sodipodi:guide
       position="8.0319939,11.386533"
       orientation="0,1"
       id="guide259"
       inkscape:locked="false" />
    <sodipodi:guide
       position="6.967533,4.4054711"
       orientation="0,1"
       id="guide261"
       inkscape:locked="false" />
    <sodipodi:guide
       position="-29.451431,6.6249549"
       orientation="0,1"
       id="guide306"
       inkscape:locked="false" />
    <sodipodi:guide
       position="29.451947,23.900395"
       orientation="1,0"
       id="guide308"
       inkscape:locked="false" />
    <sodipodi:guide
       position="6.967533,-80.696833"
       orientation="0,1"
       id="guide6430"
       inkscape:locked="false" />
  </sodipodi:namedview>
  <metadata
     id="metadata5">
    <rdf:RDF>
      <cc:Work
         rdf:about="">
        <dc:format>image/svg+xml</dc:format>
        <dc:type
           rdf:resource="http://purl.org/dc/dcmitype/StillImage" />
        <dc:title></dc:title>
      </cc:Work>
    </rdf:RDF>
  </metadata>
  <g
     inkscape:groupmode="layer"
     id="layer3"
     inkscape:label="Chasis Motores"
     style="display:inline">
    <path
       style="opacity:1;fill:#ff0000;fill-opacity:1;stroke:#000000;stroke-width:0.09543401;stroke-miterlimit:4;stroke-dasharray:none;stroke-opacity:1"
       d="m -149.37787,216.22465 -4.71444,1.9358 c -2.19418,5.15728 -3.91261,10.27144 -5.12682,15.33964 l 3.24631,2.37247 33.75867,-0.15402 v 27.42367 h -35.71307 v 1.05833 h -2.61586 v -4.23283 h -2.06396 v 31.53503 h 40.39289 v 32.49414 l -39.35471,-3.175 c 0.54629,11.29725 1.00933,12.97355 2.51613,23.72465 4.31392,18.77799 9.41028,51.71083 43.80611,52.83089 32.391911,-0.18428 40.358885,-34.41988 44.016435,-52.83089 1.709248,-11.29643 2.192674,-18.10673 2.605008,-23.72465 l -39.653913,3.175 v -32.49311 h 40.922053 v -31.53503 h -2.593123 v 4.23283 h -2.615861 v -1.05833 h -35.713069 v -27.42367 l 33.759182,0.15299 3.590996,-2.37247 c -1.573392,-6.04827 -3.168494,-10.58974 -5.159375,-15.33551 l -5.026567,-1.93993 h -4.679818 -58.903378 z m 0,2.6448 h 4.67982 v 14.63064 h -9.8578 l -2.39985,-1.82367 4.06332,-11.77396 z m 26.72292,0 5.93193,0.0708 v 13.0514 l -5.9309,-0.0708 z m 14.81718,0 -10e-4,13.0514 -5.93142,0.0708 v -13.0514 z m 22.043098,0 h 4.679818 l 3.514516,1.03301 4.063317,11.77396 -2.494423,1.82367 h -9.763228 z m -31.187238,19.61431 h 3.99975 v 10.23606 h -3.99975 z m 0,15.36186 h 3.99975 v 17.41752 h -3.99975 z m -43.56117,13.00075 h 2.61586 v 16.93334 h 35.71307 v 4.24883 h -38.32893 z m 24.65896,0 13.66997,0.0884 v 13.0514 l -13.66894,-0.0884 z m 41.275,0 -10e-4,13.0514 -13.66893,0.0884 v -13.0514 z m 22.043099,0 h 2.615861 v 21.18165 h -38.32893 v -4.24884 h 35.713069 z m -44.415889,10.36111 h 3.99975 v 10.23607 h -3.99975 z m 0,16.13959 h 3.99975 v 27.47481 h -3.99975 z m -18.90221,34.35347 13.66997,0.0884 v 13.05139 l -13.66894,-0.0884 z m 41.275517,0 5.29e-4,13.25086 h -0.0016 v -0.19947 l -13.669446,0.0884 v -13.05139 z m -65.033757,0.17465 2.77864,0.0367 -0.11369,14.63373 -1.03921,0.0424 z m 88.878813,0.0114 -1.62574,14.71279 -1.039215,-0.0429 -0.11317,-14.6332 z m -46.218363,1.75649 h 3.99975 v 10.23554 h -3.99975 z m 0.25889,14.90347 v 50.69613 c -28.0301,-0.15806 -37.85745,-35.51791 -38.74027,-50.61604 v -0.008 z m 2.9528,0 38.740267,0.0801 c -0.882777,15.09813 -8.705692,49.52252 -38.740267,50.6176 z"
       id="rect5171-7"
       inkscape:connector-curvature="0" />
  </g>
  <g
     inkscape:groupmode="layer"
     id="layer6"
     inkscape:label="Patas"
     style="display:inline">
    <path
       style="display:inline;opacity:1;fill:#ff00ff;fill-opacity:0.51239672;stroke:#000000;stroke-width:0.13987103;stroke-miterlimit:4;stroke-dasharray:none;stroke-opacity:1"
       d="m -231.28109,254.45716 c -4.36081,0.0429 -6.6481,0.93099 -10.40609,1.88309 l 0.13023,0.062 c -1.07408,0.2376 -2.01121,0.99052 -2.44016,2.09757 l -0.33642,0.86815 c -0.68207,1.76035 0.1858,3.72644 1.94614,4.40851 l 24.92457,9.65729 0.0181,-0.0109 -6.66367,83.58095 c -0.10439,0.21175 -0.10629,0.4689 0.0181,0.69144 l 2.83601,5.07463 0.79891,1.44796 0.002,-0.0151 24.84034,44.44741 c 0.20103,0.3597 0.65213,0.48731 1.01183,0.28631 l 1.18701,-0.66302 c 0.35969,-0.20103 0.48731,-0.65265 0.28628,-1.01235 l -26.73435,-47.83574 10.18419,-93.09402 c -1.25853,-1.63499 -14.81527,-11.71855 -19.59704,-11.83788 -0.71794,-0.0307 -1.3831,-0.0417 -2.00608,-0.0356 z m -8.70283,3.81836 c 0.28277,0 0.56315,0.0518 0.82682,0.15401 1.17407,0.45498 1.7569,1.77567 1.30173,2.94968 -0.45501,1.17377 -1.77532,1.75655 -2.94917,1.30173 -1.17399,-0.4548 -1.75702,-1.77517 -1.30225,-2.94918 0.33961,-0.87675 1.18265,-1.45505 2.12287,-1.45624 z"
       id="rect918-5"
       inkscape:connector-curvature="0"
       sodipodi:nodetypes="cccccccccccccccccccccccccccc" />
    <path
       style="display:inline;opacity:1;fill:#ff00ff;fill-opacity:0.51239672;stroke:#000000;stroke-width:0.13987103;stroke-miterlimit:4;stroke-dasharray:none;stroke-opacity:1"
       d="m -220.29882,241.28742 c -4.36081,0.0429 -6.64809,0.93099 -10.40608,1.88309 l 0.13022,0.062 c -1.07408,0.2376 -2.0112,0.99052 -2.44016,2.09757 l -0.33641,0.86815 c -0.68208,1.76035 0.18579,3.72644 1.94613,4.40851 l 24.92458,9.65729 0.0181,-0.0109 -6.66368,83.58096 c -0.10439,0.21174 -0.10628,0.46889 0.0181,0.69143 l 2.836,5.07463 0.79892,1.44796 0.002,-0.0151 24.84035,44.4474 c 0.20102,0.35971 0.65212,0.48731 1.01182,0.28631 l 1.18701,-0.66302 c 0.3597,-0.20103 0.48731,-0.65265 0.28629,-1.01235 l -26.73435,-47.83572 10.18419,-93.09402 c -1.25852,-1.63499 -14.81527,-11.71855 -19.59703,-11.83788 -0.71795,-0.0307 -1.38311,-0.0417 -2.00608,-0.0356 z m -8.70283,3.81836 c 0.28278,0 0.56315,0.0518 0.82683,0.15401 1.17407,0.45498 1.7569,1.77568 1.30172,2.94968 -0.455,1.17378 -1.77532,1.75655 -2.94917,1.30173 -1.17399,-0.45479 -1.75701,-1.77517 -1.30225,-2.94918 0.33962,-0.87675 1.18266,-1.45505 2.12287,-1.45624 z"
       id="rect918-5-7"
       inkscape:connector-curvature="0"
       sodipodi:nodetypes="cccccccccccccccccccccccccccc" />
    <path
       style="display:inline;opacity:1;fill:#ff00ff;fill-opacity:0.51239672;stroke:#000000;stroke-width:0.13987103;stroke-miterlimit:4;stroke-dasharray:none;stroke-opacity:1"
       d="m -208.42099,228.20864 c -4.36081,0.0429 -6.64809,0.93099 -10.40608,1.88309 l 0.13022,0.062 c -1.07408,0.2376 -2.01121,0.99053 -2.44016,2.09757 l -0.33642,0.86815 c -0.68207,1.76035 0.1858,3.72644 1.94614,4.40851 l 24.92458,9.6573 0.0181,-0.0108 -6.66368,83.58095 c -0.10439,0.21174 -0.10628,0.46889 0.0181,0.69143 l 2.836,5.07463 0.79892,1.44796 0.002,-0.0151 24.84034,44.44741 c 0.20103,0.3597 0.65213,0.48731 1.01183,0.2863 l 1.18701,-0.66302 c 0.35969,-0.20103 0.48731,-0.65264 0.28629,-1.01234 l -26.73435,-47.83579 10.18419,-93.09401 c -1.25852,-1.635 -14.81527,-11.71856 -19.59704,-11.83789 -0.71794,-0.0307 -1.3831,-0.0418 -2.00607,-0.0356 z m -8.70283,3.81836 c 0.28277,0 0.56315,0.0518 0.82682,0.15402 1.17407,0.45497 1.75691,1.77567 1.30173,2.94968 -0.45501,1.17377 -1.77532,1.75654 -2.94917,1.30172 -1.17399,-0.45479 -1.75702,-1.77517 -1.30225,-2.94918 0.33961,-0.87675 1.18265,-1.45505 2.12287,-1.45624 z"
       id="rect918-5-5"
       inkscape:connector-curvature="0"
       sodipodi:nodetypes="cccccccccccccccccccccccccccc" />
    <g
       id="g254"
       transform="rotate(-24.794413,52.248394,703.57463)">
      <path
         sodipodi:nodetypes="ccccccccccssssccccccccc"
         inkscape:connector-curvature="0"
         id="rect892-9"
         d="m 176.16323,223.9408 c -0.22671,-0.006 -0.4575,0.0106 -0.68988,0.0517 l -29.52585,5.2157 c -1.85908,0.32838 -3.091,2.089 -2.76262,3.94808 l 0.16175,0.91674 c 0.32838,1.85907 2.08952,3.09101 3.94859,2.76263 l 25.41344,-4.48862 27.79055,35.33791 5.00693,-0.032 -0.0227,-0.0357 h 14.12266 c 0.4205,0 0.75912,-0.33811 0.75912,-0.75861 v -1.38751 c 0,-0.4205 -0.33862,-0.75914 -0.75912,-0.75914 h -15.967 l -24.63519,-39.08701 c -0.58651,-1.00354 -1.65538,-1.6533 -2.84065,-1.68413 z m -28.42101,6.61406 c 1.08412,0.0273 1.99891,0.81463 2.18747,1.88257 0.21883,1.23977 -0.60872,2.42222 -1.84847,2.64119 -1.23978,0.21917 -2.42249,-0.60818 -2.6417,-1.84795 -0.21913,-1.24012 0.60879,-2.42299 1.84899,-2.6417 0.14972,-0.0265 0.30172,-0.0379 0.45371,-0.0341 z"
         style="display:inline;opacity:1;fill:#ff00ff;fill-opacity:0.51239672;stroke:#000000;stroke-width:0.09018902;stroke-miterlimit:4;stroke-dasharray:none;stroke-opacity:1" />
      <path
         sodipodi:nodetypes="ccccccccccssssccccccccc"
         inkscape:connector-curvature="0"
         id="rect892-9-3"
         d="m 182.52822,213.02102 c -0.22671,-0.006 -0.4575,0.0106 -0.68988,0.0517 l -29.52585,5.2157 c -1.85908,0.32838 -3.091,2.089 -2.76262,3.94808 l 0.16174,0.91674 c 0.32838,1.85907 2.08952,3.091 3.9486,2.76262 l 25.41344,-4.48861 27.79055,35.3379 5.00693,-0.032 -0.0227,-0.0357 h 14.12266 c 0.4205,0 0.75912,-0.33811 0.75912,-0.75861 v -1.3875 c 0,-0.42051 -0.33862,-0.75915 -0.75912,-0.75915 h -15.967 l -24.63519,-39.087 c -0.58651,-1.00354 -1.65538,-1.65331 -2.84065,-1.68414 z m -28.42101,6.61407 c 1.08412,0.0274 1.99891,0.81463 2.18747,1.88257 0.21883,1.23977 -0.60873,2.42222 -1.84847,2.64118 -1.23978,0.21917 -2.4225,-0.60817 -2.6417,-1.84794 -0.21913,-1.24012 0.60879,-2.423 1.84898,-2.6417 0.14973,-0.0265 0.30172,-0.0379 0.45372,-0.0341 z"
         style="display:inline;opacity:1;fill:#ff00ff;fill-opacity:0.51239672;stroke:#000000;stroke-width:0.09018902;stroke-miterlimit:4;stroke-dasharray:none;stroke-opacity:1" />
      <path
         sodipodi:nodetypes="ccccccccccssssccccccccc"
         inkscape:connector-curvature="0"
         id="rect892-9-5"
         d="m 164.84694,247.1956 c -0.22671,-0.006 -0.4575,0.0106 -0.68988,0.0517 l -29.52585,5.21571 c -1.85908,0.32838 -3.091,2.089 -2.76262,3.94808 l 0.16174,0.91674 c 0.32838,1.85907 2.08952,3.091 3.9486,2.76262 l 25.41344,-4.48861 27.79055,35.3379 5.00693,-0.032 -0.0227,-0.0357 h 14.12265 c 0.42051,0 0.75913,-0.33811 0.75913,-0.75861 v -1.3875 c 0,-0.4205 -0.33862,-0.75914 -0.75913,-0.75914 h -15.96699 l -24.63519,-39.08701 c -0.58651,-1.00354 -1.65538,-1.65331 -2.84065,-1.68414 z m -28.42101,6.61407 c 1.08412,0.0274 1.99891,0.81463 2.18746,1.88257 0.21884,1.23977 -0.60872,2.42222 -1.84846,2.64118 -1.23978,0.21917 -2.4225,-0.60817 -2.6417,-1.84795 -0.21913,-1.24011 0.60879,-2.42299 1.84898,-2.6417 0.14973,-0.0265 0.30172,-0.0379 0.45372,-0.0341 z"
         style="display:inline;opacity:1;fill:#ff00ff;fill-opacity:0.51239672;stroke:#000000;stroke-width:0.09018902;stroke-miterlimit:4;stroke-dasharray:none;stroke-opacity:1" />
      <path
         sodipodi:nodetypes="ccccccccccssssccccccccc"
         inkscape:connector-curvature="0"
         id="rect892-9-3-6"
         d="m 171.21192,236.27583 c -0.22671,-0.006 -0.4575,0.0106 -0.68988,0.0517 l -29.52584,5.2157 c -1.85908,0.32838 -3.091,2.089 -2.76263,3.94808 l 0.16175,0.91674 c 0.32838,1.85907 2.08952,3.091 3.9486,2.76262 l 25.41343,-4.48861 27.79055,35.3379 5.00693,-0.032 -0.0227,-0.0357 h 14.12266 c 0.4205,0 0.75912,-0.33811 0.75912,-0.75861 v -1.3875 c 0,-0.42051 -0.33862,-0.75915 -0.75912,-0.75915 h -15.967 L 174.0526,237.96 c -0.58651,-1.00354 -1.65538,-1.65331 -2.84065,-1.68414 z m -28.421,6.61407 c 1.08412,0.0274 1.9989,0.81463 2.18746,1.88257 0.21883,1.23977 -0.60872,2.42222 -1.84846,2.64118 -1.23978,0.21917 -2.4225,-0.60817 -2.6417,-1.84794 -0.21913,-1.24012 0.60879,-2.423 1.84898,-2.6417 0.14972,-0.0265 0.30172,-0.0379 0.45372,-0.0341 z"
         style="display:inline;opacity:1;fill:#ff00ff;fill-opacity:0.51239672;stroke:#000000;stroke-width:0.09018902;stroke-miterlimit:4;stroke-dasharray:none;stroke-opacity:1" />
    </g>
    <g
       id="g260"
       transform="rotate(-24.794413,32.27353,519.3569)">
      <path
         sodipodi:nodetypes="cccccccccccccssssccccccccccc"
         inkscape:connector-curvature="0"
         id="rect892"
         transform="scale(0.26458333)"
         d="m 233.5,1110.7383 v 0 c -41.83453,0.344 -90.25247,16.002 -102.78516,21.1524 h 0.15821 c -5.86705,2.0453 -9.53514,8.0542 -8.41797,14.3789 l 0.61133,3.4648 c 1.24111,7.0264 7.89543,11.6826 14.92187,10.4414 l 96.0332,-16.9629 137.46485,176.6192 c 0.12359,1.0804 0.83683,1.9707 1.82031,2.3379 l 0.3418,0.4394 18.92383,-0.1211 -0.0879,-0.1308 h 89.1289 c 1.57945,0 2.84961,-1.2721 2.84961,-2.8516 v -5.2109 c 0,-1.5795 -1.27016,-2.8496 -2.84961,-2.8496 H 385.23632 L 257.39647,1118.2481 c -2.95824,-4.3671 -7.35597,-6.9527 -11.17187,-7.0977 -4.13978,-0.3208 -8.3969,-0.4496 -12.72461,-0.414 z m -93.82031,25.7051 c 4.09804,0.1035 7.55571,3.08 8.26758,7.1171 0.82713,4.6858 -2.30065,9.1549 -6.98633,9.9825 -4.68644,0.8283 -9.15687,-2.2997 -9.98438,-6.9864 -0.82816,-4.687 2.30098,-9.1577 6.98828,-9.9843 0.56589,-0.1002 1.14037,-0.1433 1.71485,-0.1289 z"
         style="opacity:1;fill:#ff00ff;fill-opacity:0.51239672;stroke:#000000;stroke-width:0.34087187;stroke-miterlimit:4;stroke-dasharray:none;stroke-opacity:1" />
      <path
         sodipodi:nodetypes="cccccccccccccssssccccccccccc"
         inkscape:connector-curvature="0"
         id="rect892-6"
         d="m 66.532891,281.75024 v 0 c -11.068721,0.091 -23.879301,4.23386 -27.195242,5.59657 h 0.04186 c -1.552323,0.54115 -2.522839,2.13101 -2.227254,3.80442 l 0.161747,0.91673 c 0.328377,1.85906 2.089,3.09102 3.948078,2.76262 l 25.408786,-4.48811 36.370914,46.7305 c 0.0327,0.28586 0.22141,0.52142 0.48162,0.61857 l 0.0904,0.11626 5.00692,-0.032 -0.0233,-0.0346 h 23.58202 c 0.4179,0 0.75396,-0.33658 0.75396,-0.75449 V 335.608 c 0,-0.41791 -0.33606,-0.75396 -0.75396,-0.75396 H 106.67979 L 72.855498,283.7372 c -0.782701,-1.15546 -1.946267,-1.83956 -2.95589,-1.87793 -1.095317,-0.0849 -2.22168,-0.11895 -3.36672,-0.10954 z m -24.823292,6.80114 c 1.084273,0.0274 1.999115,0.81491 2.187464,1.88306 0.218845,1.23979 -0.608714,2.42224 -1.848466,2.64121 -1.239954,0.21915 -2.422755,-0.60846 -2.641701,-1.84849 -0.219117,-1.2401 0.608801,-2.42297 1.848983,-2.64168 0.149725,-0.0265 0.301722,-0.0379 0.45372,-0.0341 z"
         style="display:inline;opacity:1;fill:#ff00ff;fill-opacity:0.51239672;stroke:#000000;stroke-width:0.09018902;stroke-miterlimit:4;stroke-dasharray:none;stroke-opacity:1" />
      <path
         sodipodi:nodetypes="cccccccccccccssssccccccccccc"
         inkscape:connector-curvature="0"
         id="rect892-3"
         d="m 70.363618,267.73353 v 0 c -11.06872,0.091 -23.8793,4.23386 -27.19524,5.59657 h 0.0419 c -1.55232,0.54115 -2.52284,2.13101 -2.22725,3.80442 l 0.16174,0.91673 c 0.32838,1.85907 2.089,3.09102 3.94808,2.76262 l 25.40879,-4.4881 36.370902,46.73049 c 0.0327,0.28586 0.22142,0.52141 0.48163,0.61857 l 0.0904,0.11626 5.00693,-0.032 -0.0233,-0.0346 h 23.58201 c 0.4179,0 0.75396,-0.33658 0.75396,-0.75449 v -1.37871 c 0,-0.41791 -0.33606,-0.75396 -0.75396,-0.75396 H 110.51052 L 76.686228,269.7205 c -0.7827,-1.15546 -1.94627,-1.83957 -2.95589,-1.87794 -1.09532,-0.0849 -2.22168,-0.11895 -3.36672,-0.10953 z m -24.82329,6.80114 c 1.08427,0.0274 1.99911,0.81492 2.18746,1.88307 0.21885,1.23978 -0.60871,2.42223 -1.84846,2.6412 -1.23996,0.21915 -2.42276,-0.60846 -2.6417,-1.84849 -0.21912,-1.2401 0.6088,-2.42297 1.84898,-2.64167 0.14972,-0.0265 0.30172,-0.0379 0.45372,-0.0341 z"
         style="display:inline;opacity:1;fill:#ff00ff;fill-opacity:0.51239672;stroke:#000000;stroke-width:0.09018902;stroke-miterlimit:4;stroke-dasharray:none;stroke-opacity:1" />
      <path
         sodipodi:nodetypes="cccccccccccccssssccccccccccc"
         inkscape:connector-curvature="0"
         id="rect892-6-2"
         d="m 75.116298,255.60093 v 0 c -11.06872,0.091 -23.8793,4.23386 -27.19524,5.59657 h 0.0419 c -1.55232,0.54115 -2.52284,2.13101 -2.22725,3.80442 l 0.16174,0.91673 c 0.32838,1.85906 2.089,3.09102 3.94808,2.76262 l 25.40879,-4.48811 36.370912,46.7305 c 0.0327,0.28586 0.22141,0.52142 0.48162,0.61857 l 0.0904,0.11626 5.00692,-0.032 -0.0233,-0.0346 h 23.58202 c 0.4179,0 0.75396,-0.33657 0.75396,-0.75448 v -1.37871 c 0,-0.41792 -0.33606,-0.75396 -0.75396,-0.75396 H 115.26325 L 81.438958,257.58789 c -0.7827,-1.15546 -1.94627,-1.83956 -2.95589,-1.87793 -1.09532,-0.0849 -2.22168,-0.11895 -3.36672,-0.10954 z m -24.82329,6.80114 c 1.08427,0.0274 1.99912,0.81491 2.18747,1.88306 0.21884,1.23979 -0.60872,2.42224 -1.84847,2.64121 -1.23995,0.21915 -2.42276,-0.60846 -2.6417,-1.84849 -0.21912,-1.2401 0.6088,-2.42297 1.84898,-2.64168 0.14973,-0.0265 0.30172,-0.0379 0.45372,-0.0341 z"
         style="display:inline;opacity:1;fill:#ff00ff;fill-opacity:0.51239672;stroke:#000000;stroke-width:0.09018902;stroke-miterlimit:4;stroke-dasharray:none;stroke-opacity:1" />
    </g>
    <path
       style="display:inline;opacity:1;fill:#ff00ff;fill-opacity:0.51239672;stroke:#000000;stroke-width:0.13987103;stroke-miterlimit:4;stroke-dasharray:none;stroke-opacity:1"
       d="m -197.43872,215.0389 c -4.36081,0.0429 -6.64809,0.93099 -10.40608,1.88309 l 0.13023,0.062 c -1.07409,0.23759 -2.01121,0.99052 -2.44017,2.09757 l -0.33641,0.86815 c -0.68207,1.76035 0.1858,3.72644 1.94613,4.4085 l 24.92458,9.6573 0.0181,-0.0109 -6.66368,83.58096 c -0.10438,0.21174 -0.10628,0.46889 0.0181,0.69143 l 2.83601,5.07463 0.79891,1.44796 0.002,-0.0151 24.84035,44.4474 c 0.20102,0.35971 0.65212,0.48731 1.01182,0.28631 l 1.18701,-0.66302 c 0.3597,-0.20103 0.48731,-0.65265 0.28629,-1.01235 l -26.73435,-47.83572 10.18419,-93.09402 c -1.25852,-1.63499 -14.81527,-11.71855 -19.59703,-11.83788 -0.71795,-0.0307 -1.38311,-0.0417 -2.00608,-0.0356 z m -8.70282,3.81835 c 0.28277,0 0.56315,0.0518 0.82682,0.15402 1.17407,0.45498 1.7569,1.77568 1.30173,2.94968 -0.45501,1.17378 -1.77533,1.75655 -2.94918,1.30173 -1.17398,-0.45479 -1.75701,-1.77517 -1.30224,-2.94919 0.33961,-0.87674 1.18265,-1.45504 2.12287,-1.45624 z"
       id="rect918-5-7-9"
       inkscape:connector-curvature="0"
       sodipodi:nodetypes="cccccccccccccccccccccccccccc" />
    <g
       style="display:inline;fill:#0000ff;fill-opacity:1"
       id="g5637"
       transform="translate(352.64273,272.36098)">
      <path
         sodipodi:nodetypes="csccsccc"
         inkscape:connector-curvature="0"
         id="path7525"
         d="m -319.51994,103.66866 c -5.64434,-22.941377 -28.91773,-34.718855 -51.88473,-34.718855 -22.967,0 -45.58041,11.777478 -49.81107,34.718855 l 3.92384,-0.0246 m 0,0 c 5.17581,-22.406833 25.33065,-33.244272 45.81328,-33.405577 21.80408,-0.171713 43.97928,11.918479 48.85014,33.430147 h 3.10854"
         style="display:inline;fill:#0000ff;fill-opacity:1;fill-rule:evenodd;stroke:#000000;stroke-width:0.28007844px;stroke-linecap:butt;stroke-linejoin:miter;stroke-opacity:1" />
      <path
         sodipodi:nodetypes="csccsccc"
         inkscape:connector-curvature="0"
         id="path7525-2"
         d="m -330.49485,101.52738 c -4.42655,-19.670796 -22.6786,-29.769251 -40.69036,-29.769251 -18.01176,0 -35.74623,10.098455 -39.0641,29.769251 l 3.07725,-0.0211 m 0,0 c 4.05911,-19.212453 19.86545,-28.504884 35.92885,-28.643193 17.09975,-0.147233 34.49055,10.219356 38.3105,28.664273 h 2.43786"
         style="display:inline;fill:#0000ff;fill-opacity:1;fill-rule:evenodd;stroke:#000000;stroke-width:0.22967146px;stroke-linecap:butt;stroke-linejoin:miter;stroke-opacity:1" />
      <path
         sodipodi:nodetypes="csccsccc"
         inkscape:connector-curvature="0"
         id="path7525-9"
         d="m -325.01813,85.147717 c -5.09265,-16.370312 -26.09123,-24.774392 -46.81337,-24.774392 -20.72213,0 -41.12524,8.40408 -44.94238,24.774392 l 3.54031,-0.0175 m 0,0 c 4.66991,-15.988872 22.85475,-23.722172 41.33535,-23.837272 19.67288,-0.12253 39.68062,8.5047 44.07539,23.854822 h 2.8047"
         style="display:inline;fill:#0000ff;fill-opacity:1;fill-rule:evenodd;stroke:#000000;stroke-width:0.22473143px;stroke-linecap:butt;stroke-linejoin:miter;stroke-opacity:1" />
    </g>
    <rect
       style="opacity:1;fill:#0000ff;fill-opacity:1;stroke:#ff0000;stroke-width:0.11658709;stroke-miterlimit:4;stroke-dasharray:none;stroke-opacity:1"
       id="rect386"
       width="4.8834128"
       height="4.8834128"
       x="-229.98338"
       y="214.65414"
       ry="1.2434878e-05" />
  </g>
</svg>
