<?xml version="1.0" encoding="UTF-8" standalone="no"?>
<svg
   xmlns:dc="http://purl.org/dc/elements/1.1/"
   xmlns:cc="http://creativecommons.org/ns#"
   xmlns:rdf="http://www.w3.org/1999/02/22-rdf-syntax-ns#"
   xmlns:svg="http://www.w3.org/2000/svg"
   xmlns="http://www.w3.org/2000/svg"
   xmlns:sodipodi="http://sodipodi.sourceforge.net/DTD/sodipodi-0.dtd"
   xmlns:inkscape="http://www.inkscape.org/namespaces/inkscape"
   id="svg8"
   version="1.1"
   viewBox="0 0 253.65585 226.83342"
   height="22.68334cm"
   width="25.365583cm"
   sodipodi:docname="Planos_para_cortar.svg"
   inkscape:version="0.92.3 (unknown)">
  <sodipodi:namedview
     pagecolor="#ffffff"
     bordercolor="#666666"
     borderopacity="1"
     objecttolerance="10"
     gridtolerance="10"
     guidetolerance="10"
     inkscape:pageopacity="0"
     inkscape:pageshadow="2"
     inkscape:window-width="1366"
     inkscape:window-height="704"
     id="namedview3732"
     showgrid="false"
     inkscape:zoom="2.42"
     inkscape:cx="190.40372"
     inkscape:cy="491.434"
     inkscape:window-x="0"
     inkscape:window-y="27"
     inkscape:window-maximized="1"
     inkscape:current-layer="svg8" />
  <defs
     id="defs2" />
  <metadata
     id="metadata5">
    <rdf:RDF>
      <cc:Work
         rdf:about="">
        <dc:format>image/svg+xml</dc:format>
        <dc:type
           rdf:resource="http://purl.org/dc/dcmitype/StillImage" />
        <dc:title />
      </cc:Work>
    </rdf:RDF>
  </metadata>
  <g
     transform="translate(289.96412,-73.262062)"
     id="layer1">
    <path
       id="rect5171-7"
       d="m -197.58811,94.747917 v 4.14446 h -4.67982 l -5.55573,1.410763 -5.29167,14.55209 4.25245,3.68506 33.75866,-0.15402 v 24.24867 h -35.71306 v 4.23333 h -2.61586 v -4.23283 h -3.65146 v 31.53503 h 41.98038 v 29.31914 h -35.71306 v 4.23333 h -4.67982 v 2.64584 h 4.67982 v 16.39591 l 0.0439,1.1348 c 1.24032,17.308 8.62832,52.49558 42.63668,52.14567 34.04258,0.35025 41.41161,-34.90905 42.64081,-52.19838 0.0132,-0.17926 0.0278,-0.37671 0.0403,-0.54414 -5.3e-4,-5.75003 0.001,-11.73943 0,-16.93386 h 4.67981 v -2.64584 h -4.67981 v -4.23333 h -35.7136 V 174.1715 h 41.98039 v -31.53503 h -3.65146 v 4.23283 h -2.61586 v -4.23333 h -35.71307 v -24.24866 l 33.75918,0.15298 4.25246,-3.68506 -5.29167,-14.55209 -5.55573,-1.410763 h -4.67982 v -4.14446 z m -4.67982,6.789263 h 4.67982 v 14.63064 l -9.8578,0.19947 -2.92902,-2.5523 4.06332,-11.24479 z m 26.72292,0 5.93193,0.0708 v 9.8764 l -5.9309,-0.0708 z m 14.81718,0 -10e-4,9.8764 -5.93142,0.0708 v -9.8764 z m 22.0431,0 h 4.67982 l 4.04368,1.03302 4.06332,11.24479 -2.92902,2.5523 -9.8578,-0.19947 z m -74.74841,47.97693 h 2.61586 v 16.93333 h 35.71306 v 4.24884 h -38.32892 z m 24.65896,0 13.66996,0.0884 v 9.87639 l -13.66893,-0.0884 z m 41.275,0 -0.001,9.87639 -13.66893,0.0884 v -9.87639 z m 22.0431,0 h 2.61586 v 21.18164 h -38.32893 v -4.24884 h 35.71307 z m -63.3181,60.85416 13.66996,0.0884 v 9.8764 l -13.66893,-0.0884 z m 41.27552,0 5.3e-4,10.07587 h -0.002 v -0.19947 l -13.66945,0.0884 v -9.8764 z m -22.11442,16.846 v 49.10862 c -28.0301,-0.15806 -36.26995,-33.9304 -37.15277,-49.02853 v -0.008 z m 2.9528,0 37.15277,0.0801 c -0.88278,15.09813 -7.11819,47.93501 -37.15277,49.03009 z"
       style="display:inline;opacity:1;fill:#ff0000;fill-opacity:1;stroke:#000000;stroke-width:0.09543401;stroke-miterlimit:4;stroke-dasharray:none;stroke-opacity:1" />
    <path
       id="rect1125-3"
       d="m -265.20538,94.54439 a 4.6093888,4.6543899 0 0 0 -4.60902,4.6545 4.6093888,4.6543899 0 0 0 4.60902,4.6545 4.6093888,4.6543899 0 0 0 3.24993,-1.35702 h 38.09122 c 1.67533,0 3.0241,-1.34877 3.0241,-3.02411 v -0.54724 c 0,-1.67534 -1.34877,-3.02361 -3.0241,-3.02361 H -261.957 a 4.6093888,4.6543899 0 0 0 -3.24838,-1.35702 z m -0.22273,2.20813 a 2.4224372,2.4460869 0 0 1 2.42208,2.44637 2.4224372,2.4460869 0 0 1 -2.42208,2.44586 2.4224372,2.4460869 0 0 1 -2.42259,-2.44586 2.4224372,2.4460869 0 0 1 2.42259,-2.44637 z m 29.23284,1.35962 h 11.62255 c 0.60202,0 1.08675,0.48472 1.08675,1.08675 0,0.60204 -0.48473,1.08625 -1.08675,1.08625 h -11.62255 c -0.60202,0 -1.08675,-0.48421 -1.08675,-1.08625 0,-0.60203 0.48473,-1.08675 1.08675,-1.08675 z"
       style="display:inline;opacity:1;fill:#ff00ff;fill-opacity:0.44214878;stroke:#000000;stroke-width:0.29943132;stroke-miterlimit:4;stroke-dasharray:none;stroke-opacity:1" />
    <path
       id="rect1125-3-2"
       d="m -225.44915,105.3035 a 4.6093888,4.6543899 0 0 1 4.60902,4.65449 4.6093888,4.6543899 0 0 1 -4.60902,4.6545 4.6093888,4.6543899 0 0 1 -3.24993,-1.35702 h -38.09122 c -1.67533,0 -3.0241,-1.34877 -3.0241,-3.02411 v -0.54724 c 0,-1.67534 1.34877,-3.0236 3.0241,-3.0236 h 38.09277 a 4.6093888,4.6543899 0 0 1 3.24838,-1.35702 z m 0.22273,2.20813 a 2.4224372,2.4460869 0 0 0 -2.42208,2.44636 2.4224372,2.4460869 0 0 0 2.42208,2.44586 2.4224372,2.4460869 0 0 0 2.42259,-2.44586 2.4224372,2.4460869 0 0 0 -2.42259,-2.44636 z m -29.23284,1.35961 h -11.62255 c -0.60202,0 -1.08675,0.48472 -1.08675,1.08675 0,0.60204 0.48473,1.08625 1.08675,1.08625 h 11.62255 c 0.60201,0 1.08675,-0.48421 1.08675,-1.08625 0,-0.60203 -0.48474,-1.08675 -1.08675,-1.08675 z"
       style="display:inline;opacity:1;fill:#ff00ff;fill-opacity:0.44214878;stroke:#000000;stroke-width:0.29943132;stroke-miterlimit:4;stroke-dasharray:none;stroke-opacity:1" />
    <path
       id="rect7290-9"
       d="m -113.95472,93.412062 v 61.912558 h 57.039886 V 93.412062 Z m 7.30446,1.5875 h 32.537509 v 3.22617 h -32.537509 z m -4.67361,1.5875 h 3.22616 v 54.516128 h -3.22616 z m 48.852786,0 h 3.22616 v 53.442788 h -3.22616 z m -41.484766,3.968748 h 9.260392 v 21.16672 h -9.260392 z m 27.781209,0 h 9.260417 v 21.16672 h -9.260417 z m -27.781209,25.13547 h 37.041626 v 25.13542 h -37.041626 z"
       style="display:inline;opacity:1;fill:#008000;fill-opacity:0.5;stroke:#000000;stroke-width:0.30000001;stroke-miterlimit:4;stroke-dasharray:none;stroke-opacity:1" />
    <path
       id="rect7290-9-6"
       d="m -113.95475,158.97967 v 61.91251 h 57.039948 v -61.91251 z m 7.30446,1.5875 h 32.537572 v 3.22617 h -32.537572 z m -4.67362,1.5875 h 3.22616 v 54.51608 h -3.22616 z m 48.852858,0 h 3.22616 v 53.44274 h -3.22616 z m -41.484818,3.96875 h 9.260428 v 21.16667 h -9.260428 z m 27.781262,0 h 9.260416 v 21.16667 h -9.260416 z m -27.781262,25.13542 h 37.041678 v 25.13542 h -37.041678 z"
       style="display:inline;opacity:1;fill:#008000;fill-opacity:0.5;stroke:#000000;stroke-width:0.30000001;stroke-miterlimit:4;stroke-dasharray:none;stroke-opacity:1" />
    <path
       id="rect1125-3-1"
       d="m -265.20538,116.58681 a 4.6093888,4.6543899 0 0 0 -4.60902,4.6545 4.6093888,4.6543899 0 0 0 4.60902,4.6545 4.6093888,4.6543899 0 0 0 3.24993,-1.35702 h 38.09122 c 1.67533,0 3.0241,-1.34877 3.0241,-3.02411 v -0.54724 c 0,-1.67534 -1.34877,-3.02361 -3.0241,-3.02361 H -261.957 a 4.6093888,4.6543899 0 0 0 -3.24838,-1.35702 z m -0.22273,2.20813 a 2.4224372,2.4460869 0 0 1 2.42208,2.44637 2.4224372,2.4460869 0 0 1 -2.42208,2.44586 2.4224372,2.4460869 0 0 1 -2.42259,-2.44586 2.4224372,2.4460869 0 0 1 2.42259,-2.44637 z m 29.23284,1.35962 h 11.62255 c 0.60202,0 1.08675,0.48472 1.08675,1.08675 0,0.60204 -0.48473,1.08625 -1.08675,1.08625 h -11.62255 c -0.60202,0 -1.08675,-0.48421 -1.08675,-1.08625 0,-0.60203 0.48473,-1.08675 1.08675,-1.08675 z"
       style="display:inline;opacity:1;fill:#ff00ff;fill-opacity:0.44214878;stroke:#000000;stroke-width:0.29943132;stroke-miterlimit:4;stroke-dasharray:none;stroke-opacity:1" />
    <path
       id="rect1125-3-2-8"
       d="m -225.44915,127.34592 a 4.6093888,4.6543899 0 0 1 4.60902,4.65449 4.6093888,4.6543899 0 0 1 -4.60902,4.6545 4.6093888,4.6543899 0 0 1 -3.24993,-1.35702 h -38.09122 c -1.67533,0 -3.0241,-1.34877 -3.0241,-3.02411 v -0.54724 c 0,-1.67534 1.34877,-3.0236 3.0241,-3.0236 h 38.09277 a 4.6093888,4.6543899 0 0 1 3.24838,-1.35702 z m 0.22273,2.20813 a 2.4224372,2.4460869 0 0 0 -2.42208,2.44636 2.4224372,2.4460869 0 0 0 2.42208,2.44586 2.4224372,2.4460869 0 0 0 2.42259,-2.44586 2.4224372,2.4460869 0 0 0 -2.42259,-2.44636 z m -29.23284,1.35961 h -11.62255 c -0.60202,0 -1.08675,0.48472 -1.08675,1.08675 0,0.60204 0.48473,1.08625 1.08675,1.08625 h 11.62255 c 0.60201,0 1.08675,-0.48421 1.08675,-1.08625 0,-0.60203 -0.48474,-1.08675 -1.08675,-1.08675 z"
       style="display:inline;opacity:1;fill:#ff00ff;fill-opacity:0.44214878;stroke:#000000;stroke-width:0.29943132;stroke-miterlimit:4;stroke-dasharray:none;stroke-opacity:1" />
    <path
       id="rect1125-3-7"
       d="m -265.20538,138.54655 a 4.6093888,4.6543899 0 0 0 -4.60902,4.6545 4.6093888,4.6543899 0 0 0 4.60902,4.6545 4.6093888,4.6543899 0 0 0 3.24993,-1.35702 h 38.09122 c 1.67533,0 3.0241,-1.34877 3.0241,-3.02411 v -0.54724 c 0,-1.67534 -1.34877,-3.02361 -3.0241,-3.02361 H -261.957 a 4.6093888,4.6543899 0 0 0 -3.24838,-1.35702 z m -0.22273,2.20813 a 2.4224372,2.4460869 0 0 1 2.42208,2.44637 2.4224372,2.4460869 0 0 1 -2.42208,2.44586 2.4224372,2.4460869 0 0 1 -2.42259,-2.44586 2.4224372,2.4460869 0 0 1 2.42259,-2.44637 z m 29.23284,1.35962 h 11.62255 c 0.60202,0 1.08675,0.48472 1.08675,1.08675 0,0.60204 -0.48473,1.08625 -1.08675,1.08625 h -11.62255 c -0.60202,0 -1.08675,-0.48421 -1.08675,-1.08625 0,-0.60203 0.48473,-1.08675 1.08675,-1.08675 z"
       style="display:inline;opacity:1;fill:#ff00ff;fill-opacity:0.44214878;stroke:#000000;stroke-width:0.29943132;stroke-miterlimit:4;stroke-dasharray:none;stroke-opacity:1" />
    <path
       id="rect1125-3-2-9"
       d="m -225.44915,149.30566 a 4.6093888,4.6543899 0 0 1 4.60902,4.65449 4.6093888,4.6543899 0 0 1 -4.60902,4.6545 4.6093888,4.6543899 0 0 1 -3.24993,-1.35702 h -38.09122 c -1.67533,0 -3.0241,-1.34877 -3.0241,-3.02411 v -0.54724 c 0,-1.67534 1.34877,-3.0236 3.0241,-3.0236 h 38.09277 a 4.6093888,4.6543899 0 0 1 3.24838,-1.35702 z m 0.22273,2.20813 a 2.4224372,2.4460869 0 0 0 -2.42208,2.44636 2.4224372,2.4460869 0 0 0 2.42208,2.44586 2.4224372,2.4460869 0 0 0 2.42259,-2.44586 2.4224372,2.4460869 0 0 0 -2.42259,-2.44636 z m -29.23284,1.35961 h -11.62255 c -0.60202,0 -1.08675,0.48472 -1.08675,1.08675 0,0.60204 0.48473,1.08625 1.08675,1.08625 h 11.62255 c 0.60201,0 1.08675,-0.48421 1.08675,-1.08625 0,-0.60203 -0.48474,-1.08675 -1.08675,-1.08675 z"
       style="display:inline;opacity:1;fill:#ff00ff;fill-opacity:0.44214878;stroke:#000000;stroke-width:0.29943132;stroke-miterlimit:4;stroke-dasharray:none;stroke-opacity:1" />
    <path
       id="rect1125-3-1-2"
       d="m -265.20538,160.58897 a 4.6093888,4.6543899 0 0 0 -4.60902,4.6545 4.6093888,4.6543899 0 0 0 4.60902,4.6545 4.6093888,4.6543899 0 0 0 3.24993,-1.35702 h 38.09122 c 1.67533,0 3.0241,-1.34877 3.0241,-3.02411 v -0.54724 c 0,-1.67534 -1.34877,-3.02361 -3.0241,-3.02361 H -261.957 a 4.6093888,4.6543899 0 0 0 -3.24838,-1.35702 z m -0.22273,2.20813 a 2.4224372,2.4460869 0 0 1 2.42208,2.44637 2.4224372,2.4460869 0 0 1 -2.42208,2.44586 2.4224372,2.4460869 0 0 1 -2.42259,-2.44586 2.4224372,2.4460869 0 0 1 2.42259,-2.44637 z m 29.23284,1.35962 h 11.62255 c 0.60202,0 1.08675,0.48472 1.08675,1.08675 0,0.60204 -0.48473,1.08625 -1.08675,1.08625 h -11.62255 c -0.60202,0 -1.08675,-0.48421 -1.08675,-1.08625 0,-0.60203 0.48473,-1.08675 1.08675,-1.08675 z"
       style="display:inline;opacity:1;fill:#ff00ff;fill-opacity:0.44214878;stroke:#000000;stroke-width:0.29943132;stroke-miterlimit:4;stroke-dasharray:none;stroke-opacity:1" />
    <path
       id="rect1125-3-2-8-0"
       d="m -225.44915,171.34808 a 4.6093888,4.6543899 0 0 1 4.60902,4.65449 4.6093888,4.6543899 0 0 1 -4.60902,4.6545 4.6093888,4.6543899 0 0 1 -3.24993,-1.35702 h -38.09122 c -1.67533,0 -3.0241,-1.34877 -3.0241,-3.02411 v -0.54724 c 0,-1.67534 1.34877,-3.0236 3.0241,-3.0236 h 38.09277 a 4.6093888,4.6543899 0 0 1 3.24838,-1.35702 z m 0.22273,2.20813 a 2.4224372,2.4460869 0 0 0 -2.42208,2.44636 2.4224372,2.4460869 0 0 0 2.42208,2.44586 2.4224372,2.4460869 0 0 0 2.42259,-2.44586 2.4224372,2.4460869 0 0 0 -2.42259,-2.44636 z m -29.23284,1.35961 h -11.62255 c -0.60202,0 -1.08675,0.48472 -1.08675,1.08675 0,0.60204 0.48473,1.08625 1.08675,1.08625 h 11.62255 c 0.60201,0 1.08675,-0.48421 1.08675,-1.08625 0,-0.60203 -0.48474,-1.08675 -1.08675,-1.08675 z"
       style="display:inline;opacity:1;fill:#ff00ff;fill-opacity:0.44214878;stroke:#000000;stroke-width:0.29943132;stroke-miterlimit:4;stroke-dasharray:none;stroke-opacity:1" />
    <rect
       y="121.97987"
       x="-204.33258"
       height="15.448917"
       width="22.421354"
       id="rect7290-3"
       style="display:inline;opacity:1;fill:#008000;fill-opacity:0.97520662;stroke:#000000;stroke-width:0.10528222;stroke-miterlimit:4;stroke-dasharray:none;stroke-opacity:1" />
    <rect
       y="121.97987"
       x="-155.65211"
       height="15.448917"
       width="22.421354"
       id="rect7290-3-7"
       style="display:inline;opacity:1;fill:#008000;fill-opacity:0.97520662;stroke:#000000;stroke-width:0.10528222;stroke-miterlimit:4;stroke-dasharray:none;stroke-opacity:1" />
    <rect
       y="179.96155"
       x="-203.80728"
       height="15.448917"
       width="22.421354"
       id="rect7290-3-5"
       style="display:inline;opacity:1;fill:#008000;fill-opacity:0.97520662;stroke:#000000;stroke-width:0.10528222;stroke-miterlimit:4;stroke-dasharray:none;stroke-opacity:1" />
    <rect
       y="179.96155"
       x="-155.12682"
       height="15.448917"
       width="22.421354"
       id="rect7290-3-7-9"
       style="display:inline;opacity:1;fill:#008000;fill-opacity:0.97520662;stroke:#000000;stroke-width:0.10528222;stroke-miterlimit:4;stroke-dasharray:none;stroke-opacity:1" />
  </g>
  <rect
     style="opacity:1;fill:#ff0000;fill-opacity:0.98823529;stroke:#000000;stroke-width:0.13424852;stroke-miterlimit:4;stroke-dasharray:none;stroke-opacity:1"
     id="rect3734"
     width="4.8657517"
     height="4.8657517"
     x="22.20363"
     y="108.93877"
     ry="0" />
  <text
     xml:space="preserve"
     style="font-style:normal;font-weight:normal;font-size:5.34300089px;line-height:125%;font-family:sans-serif;letter-spacing:0px;word-spacing:0px;fill:#000000;fill-opacity:1;stroke:none;stroke-width:0.13357502px;stroke-linecap:butt;stroke-linejoin:miter;stroke-opacity:1"
     x="25.910919"
     y="125.30802"
     id="text3738"
     transform="scale(1.1026099,0.90693908)"><tspan
       sodipodi:role="line"
       id="tspan3736"
       x="25.910919"
       y="125.30802"
       style="stroke-width:0.13357502px">5mm</tspan></text>
</svg>
