  0
SECTION
  2
HEADER
  9
$ACADVER
  1
AC1014
  9
$HANDSEED
  5
FFFF
  9
$MEASUREMENT
 70
     1
  0
ENDSEC
  0
SECTION
  2
TABLES
  0
TABLE
  2
VPORT
  5
8
330
0
100
AcDbSymbolTable
 70
     4
  0
VPORT
  5
2E
330
8
100
AcDbSymbolTableRecord
100
AcDbViewportTableRecord
  2
*ACTIVE
 70
     0
 10
0.0
 20
0.0
 11
1.0
 21
1.0
 12
210.0
 22
148.5
 13
0.0
 23
0.0
 14
10.0
 24
10.0
 15
10.0
 25
10.0
 16
0.0
 26
0.0
 36
1.0
 17
0.0
 27
0.0
 37
0.0
 40
341.0
 41
1.24
 42
50.0
 43
0.0
 44
0.0
 50
0.0
 51
0.0
 71
     0
 72
   100
 73
     1
 74
     3
 75
     0
 76
     0
 77
     0
 78
     0
  0
ENDTAB
  0
TABLE
  2
LTYPE
  5
5
330
0
100
AcDbSymbolTable
 70
     1
  0
LTYPE
  5
14
330
5
100
AcDbSymbolTableRecord
100
AcDbLinetypeTableRecord
  2
BYBLOCK
 70
     0
  3

 72
    65
 73
     0
 40
0.0
  0
LTYPE
  5
15
330
5
100
AcDbSymbolTableRecord
100
AcDbLinetypeTableRecord
  2
BYLAYER
 70
     0
  3

 72
    65
 73
     0
 40
0.0
  0
LTYPE
  5
16
330
5
100
AcDbSymbolTableRecord
100
AcDbLinetypeTableRecord
  2
CONTINUOUS
 70
     0
  3
Solid line
 72
    65
 73
     0
 40
0.0
  0
ENDTAB
  0
TABLE
  2
LAYER
  5
2
100
AcDbSymbolTable
 70
3
  0
LAYER
  5
50
100
AcDbSymbolTableRecord
100
AcDbLayerTableRecord
  2
0
 70
0
  6
CONTINUOUS
  0
LAYER
  5
51
100
AcDbSymbolTableRecord
100
AcDbLayerTableRecord
  2
Chasis_Motores
 70
0
  6
CONTINUOUS
  0
LAYER
  5
52
100
AcDbSymbolTableRecord
100
AcDbLayerTableRecord
  2
Patas
 70
0
  6
CONTINUOUS
  0
ENDTAB
  0
TABLE
  2
STYLE
  5
3
330
0
100
AcDbSymbolTable
 70
     1
  0
STYLE
  5
11
330
3
100
AcDbSymbolTableRecord
100
AcDbTextStyleTableRecord
  2
STANDARD
 70
     0
 40
0.0
 41
1.0
 50
0.0
 71
     0
 42
2.5
  3
txt
  4

  0
ENDTAB
  0
TABLE
  2
VIEW
  5
6
330
0
100
AcDbSymbolTable
 70
     0
  0
ENDTAB
  0
TABLE
  2
UCS
  5
7
330
0
100
AcDbSymbolTable
 70
     0
  0
ENDTAB
  0
TABLE
  2
APPID
  5
9
330
0
100
AcDbSymbolTable
 70
     2
  0
APPID
  5
12
330
9
100
AcDbSymbolTableRecord
100
AcDbRegAppTableRecord
  2
ACAD
 70
     0
  0
ENDTAB
  0
TABLE
  2
DIMSTYLE
  5
A
330
0
100
AcDbSymbolTable
 70
     1
  0
DIMSTYLE
105
27
330
A
100
AcDbSymbolTableRecord
100
AcDbDimStyleTableRecord
  2
ISO-25
 70
     0
  3

  4

  5

  6

  7

 40
1.0
 41
2.5
 42
0.625
 43
3.75
 44
1.25
 45
0.0
 46
0.0
 47
0.0
 48
0.0
140
2.5
141
2.5
142
0.0
143
0.03937007874016
144
1.0
145
0.0
146
1.0
147
0.625
 71
     0
 72
     0
 73
     0
 74
     0
 75
     0
 76
     0
 77
     1
 78
     8
170
     0
171
     3
172
     1
173
     0
174
     0
175
     0
176
     0
177
     0
178
     0
270
     2
271
     2
272
     2
273
     2
274
     3
340
11
275
     0
280
     0
281
     0
282
     0
283
     0
284
     8
285
     0
286
     0
287
     3
288
     0
  0
ENDTAB
  0
TABLE
  2
BLOCK_RECORD
  5
1
330
0
100
AcDbSymbolTable
 70
     1
  0
BLOCK_RECORD
  5
1F
330
1
100
AcDbSymbolTableRecord
100
AcDbBlockTableRecord
  2
*MODEL_SPACE
  0
BLOCK_RECORD
  5
1B
330
1
100
AcDbSymbolTableRecord
100
AcDbBlockTableRecord
  2
*PAPER_SPACE
  0
ENDTAB
  0
ENDSEC
  0
SECTION
  2
BLOCKS
  0
BLOCK
  5
20
330
1F
100
AcDbEntity
  8
0
100
AcDbBlockBegin
  2
*MODEL_SPACE
 70
     0
 10
0.0
 20
0.0
 30
0.0
  3
*MODEL_SPACE
  1

  0
ENDBLK
  5
21
330
1F
100
AcDbEntity
  8
0
100
AcDbBlockEnd
  0
BLOCK
  5
1C
330
1B
100
AcDbEntity
 67
     1
  8
0
100
AcDbBlockBegin
  2
*PAPER_SPACE
  1

  0
ENDBLK
  5
1D
330
1B
100
AcDbEntity
 67
     1
  8
0
100
AcDbBlockEnd
  0
ENDSEC
  0
SECTION
  2
ENTITIES
  0
SPLINE
  5
100
100
AcDbEntity
  8
Chasis_Motores
 62
7
100
AcDbSpline
 70
8
 71
3
 72
8
 73
4
 74
0
 40
0
 40
0
 40
0
 40
0
 40
1
 40
1
 40
1
 40
1
 10
-436.797099
 20
223.482189
 30
0.0
 10
-443.016822
 20
208.863128
 30
0.0
 10
-447.887962
 20
194.366296
 30
0.0
 10
-451.329817
 20
179.999745
 30
0.0
  0
LWPOLYLINE
  5
101
100
AcDbEntity
  8
Chasis_Motores
 62
7
100
AcDbPolyline
 90
2
 70
0
 10
-423.433332
 20
228.969496
 30
0.0
 10
-436.797099
 20
223.482189
 30
0.0
  0
SPLINE
  5
102
100
AcDbEntity
  8
Chasis_Motores
 62
7
100
AcDbSpline
 70
8
 71
3
 72
8
 73
4
 74
0
 40
0
 40
0
 40
0
 40
0
 40
1
 40
1
 40
1
 40
1
 10
-457.990469
 20
-67.526589
 30
0.0
 10
-456.441931
 20
-99.550290
 30
0.0
 10
-455.129376
 20
-104.302006
 30
0.0
 10
-450.858132
 20
-134.777565
 30
0.0
  0
SPLINE
  5
103
100
AcDbEntity
  8
Chasis_Motores
 62
7
100
AcDbSpline
 70
8
 71
3
 72
8
 73
4
 74
0
 40
0
 40
0
 40
0
 40
0
 40
1
 40
1
 40
1
 40
1
 10
-450.858132
 20
-134.777565
 30
0.0
 10
-438.629698
 20
-188.006513
 30
0.0
 10
-424.183323
 20
-281.359446
 30
0.0
 10
-326.683332
 20
-284.534419
 30
0.0
  0
SPLINE
  5
104
100
AcDbEntity
  8
Chasis_Motores
 62
7
100
AcDbSpline
 70
8
 71
3
 72
8
 73
4
 74
0
 40
0
 40
0
 40
0
 40
0
 40
1
 40
1
 40
1
 40
1
 10
-326.683332
 20
-284.534419
 30
0.0
 10
-234.863742
 20
-284.012050
 30
0.0
 10
-212.280194
 20
-186.966255
 30
0.0
 10
-201.912335
 20
-134.777565
 30
0.0
  0
SPLINE
  5
105
100
AcDbEntity
  8
Chasis_Motores
 62
7
100
AcDbSpline
 70
8
 71
3
 72
8
 73
4
 74
0
 40
0
 40
0
 40
0
 40
0
 40
1
 40
1
 40
1
 40
1
 10
-201.912335
 20
-134.777565
 30
0.0
 10
-197.067223
 20
-102.756189
 30
0.0
 10
-195.696882
 20
-83.451402
 30
0.0
 10
-194.528061
 20
-67.526589
 30
0.0
  0
LWPOLYLINE
  5
106
100
AcDbEntity
  8
Chasis_Motores
 62
7
100
AcDbPolyline
 90
13
 70
0
 10
-451.329817
 20
179.999745
 30
0.0
 10
-442.127679
 20
173.274633
 30
0.0
 10
-346.433811
 20
173.711225
 30
0.0
 10
-346.433811
 20
95.974838
 30
0.0
 10
-447.667710
 20
95.974838
 30
0.0
 10
-447.667710
 20
92.974847
 30
0.0
 10
-455.082746
 20
92.974847
 30
0.0
 10
-455.082746
 20
104.973420
 30
0.0
 10
-460.933342
 20
104.973420
 30
0.0
 10
-460.933342
 20
15.582784
 30
0.0
 10
-346.433811
 20
15.582784
 30
0.0
 10
-346.433811
 20
-76.526589
 30
0.0
 10
-457.990469
 20
-67.526589
 30
0.0
  0
SPLINE
  5
107
100
AcDbEntity
  8
Chasis_Motores
 62
7
100
AcDbSpline
 70
8
 71
3
 72
8
 73
4
 74
0
 40
0
 40
0
 40
0
 40
0
 40
1
 40
1
 40
1
 40
1
 10
-201.058333
 20
179.999745
 30
0.0
 10
-205.518342
 20
197.144447
 30
0.0
 10
-210.039891
 20
210.017906
 30
0.0
 10
-215.683333
 20
223.470482
 30
0.0
  0
LWPOLYLINE
  5
108
100
AcDbEntity
  8
Chasis_Motores
 62
7
100
AcDbPolyline
 90
13
 70
0
 10
-194.528061
 20
-67.526589
 30
0.0
 10
-306.932854
 20
-76.526589
 30
0.0
 10
-306.932854
 20
15.579865
 30
0.0
 10
-190.933333
 20
15.579865
 30
0.0
 10
-190.933333
 20
104.970501
 30
0.0
 10
-198.283918
 20
104.970501
 30
0.0
 10
-198.283918
 20
92.971928
 30
0.0
 10
-205.698957
 20
92.971928
 30
0.0
 10
-205.698957
 20
95.971918
 30
0.0
 10
-306.932854
 20
95.971918
 30
0.0
 10
-306.932854
 20
173.708306
 30
0.0
 10
-211.237534
 20
173.274633
 30
0.0
 10
-201.058333
 20
179.999745
 30
0.0
  0
LWPOLYLINE
  5
109
100
AcDbEntity
  8
Chasis_Motores
 62
7
100
AcDbPolyline
 90
5
 70
0
 10
-215.683333
 20
223.470482
 30
0.0
 10
-229.931870
 20
228.969496
 30
0.0
 10
-243.197495
 20
228.969496
 30
0.0
 10
-410.167701
 20
228.969496
 30
0.0
 10
-423.433332
 20
228.969496
 30
0.0
  0
LWPOLYLINE
  5
10a
100
AcDbEntity
  8
Chasis_Motores
 62
7
100
AcDbPolyline
 90
6
 70
1
 10
-423.433332
 20
221.472425
 30
0.0
 10
-410.167701
 20
221.472425
 30
0.0
 10
-410.167701
 20
179.999745
 30
0.0
 10
-438.111071
 20
179.999745
 30
0.0
 10
-444.913795
 20
185.169203
 30
0.0
 10
-433.395723
 20
218.544208
 30
0.0
  0
LWPOLYLINE
  5
10b
100
AcDbEntity
  8
Chasis_Motores
 62
7
100
AcDbPolyline
 90
4
 70
1
 10
-347.683323
 20
221.472425
 30
0.0
 10
-330.868403
 20
221.271732
 30
0.0
 10
-330.868403
 20
184.275638
 30
0.0
 10
-347.680403
 20
184.476331
 30
0.0
  0
LWPOLYLINE
  5
10c
100
AcDbEntity
  8
Chasis_Motores
 62
7
100
AcDbPolyline
 90
4
 70
1
 10
-305.681868
 20
221.472425
 30
0.0
 10
-305.684702
 20
184.476331
 30
0.0
 10
-322.498176
 20
184.275638
 30
0.0
 10
-322.498176
 20
221.271732
 30
0.0
  0
LWPOLYLINE
  5
10d
100
AcDbEntity
  8
Chasis_Motores
 62
7
100
AcDbPolyline
 90
6
 70
1
 10
-243.197495
 20
221.472425
 30
0.0
 10
-229.931870
 20
221.472425
 30
0.0
 10
-219.969462
 20
218.544208
 30
0.0
 10
-208.451398
 20
185.169203
 30
0.0
 10
-215.522203
 20
179.999745
 30
0.0
 10
-243.197495
 20
179.999745
 30
0.0
  0
LWPOLYLINE
  5
10e
100
AcDbEntity
  8
Chasis_Motores
 62
7
100
AcDbPolyline
 90
4
 70
1
 10
-331.602265
 20
165.872806
 30
0.0
 10
-320.264391
 20
165.872806
 30
0.0
 10
-320.264391
 20
136.857203
 30
0.0
 10
-331.602265
 20
136.857203
 30
0.0
  0
LWPOLYLINE
  5
10f
100
AcDbEntity
  8
Chasis_Motores
 62
7
100
AcDbPolyline
 90
4
 70
1
 10
-331.602265
 20
122.327376
 30
0.0
 10
-320.264391
 20
122.327376
 30
0.0
 10
-320.264391
 20
72.954879
 30
0.0
 10
-331.602265
 20
72.954879
 30
0.0
  0
LWPOLYLINE
  5
110
100
AcDbEntity
  8
Chasis_Motores
 62
7
100
AcDbPolyline
 90
6
 70
1
 10
-455.082746
 20
85.474857
 30
0.0
 10
-447.667710
 20
85.474857
 30
0.0
 10
-447.667710
 20
37.474838
 30
0.0
 10
-346.433811
 20
37.474838
 30
0.0
 10
-346.433811
 20
25.430910
 30
0.0
 10
-455.082746
 20
25.430910
 30
0.0
  0
LWPOLYLINE
  5
111
100
AcDbEntity
  8
Chasis_Motores
 62
7
100
AcDbPolyline
 90
4
 70
1
 10
-385.183332
 20
85.474857
 30
0.0
 10
-346.433811
 20
85.224274
 30
0.0
 10
-346.433811
 20
48.228180
 30
0.0
 10
-385.180413
 20
48.478762
 30
0.0
  0
LWPOLYLINE
  5
112
100
AcDbEntity
  8
Chasis_Motores
 62
7
100
AcDbPolyline
 90
4
 70
1
 10
-268.183332
 20
85.474857
 30
0.0
 10
-268.186167
 20
48.478762
 30
0.0
 10
-306.932740
 20
48.228180
 30
0.0
 10
-306.932740
 20
85.224274
 30
0.0
  0
LWPOLYLINE
  5
113
100
AcDbEntity
  8
Chasis_Motores
 62
7
100
AcDbPolyline
 90
6
 70
1
 10
-205.698957
 20
85.474857
 30
0.0
 10
-198.283918
 20
85.474857
 30
0.0
 10
-198.283918
 20
25.432384
 30
0.0
 10
-306.932854
 20
25.432384
 30
0.0
 10
-306.932854
 20
37.476340
 30
0.0
 10
-205.698957
 20
37.476340
 30
0.0
  0
LWPOLYLINE
  5
114
100
AcDbEntity
  8
Chasis_Motores
 62
7
100
AcDbPolyline
 90
4
 70
1
 10
-331.602265
 20
56.104781
 30
0.0
 10
-320.264391
 20
56.104781
 30
0.0
 10
-320.264391
 20
27.089150
 30
0.0
 10
-331.602265
 20
27.089150
 30
0.0
  0
LWPOLYLINE
  5
115
100
AcDbEntity
  8
Chasis_Motores
 62
7
100
AcDbPolyline
 90
4
 70
1
 10
-331.602265
 20
10.354762
 30
0.0
 10
-320.264391
 20
10.354762
 30
0.0
 10
-320.264391
 20
-67.526589
 30
0.0
 10
-331.602265
 20
-67.526589
 30
0.0
  0
LWPOLYLINE
  5
116
100
AcDbEntity
  8
Chasis_Motores
 62
7
100
AcDbPolyline
 90
4
 70
1
 10
-385.183332
 20
-87.025153
 30
0.0
 10
-346.433811
 20
-87.275735
 30
0.0
 10
-346.433811
 20
-124.271802
 30
0.0
 10
-385.180413
 20
-124.021219
 30
0.0
  0
LWPOLYLINE
  5
117
100
AcDbEntity
  8
Chasis_Motores
 62
7
100
AcDbPolyline
 90
6
 70
1
 10
-268.181867
 20
-87.025153
 30
0.0
 10
-268.180367
 20
-124.586646
 30
0.0
 10
-268.184903
 20
-124.586646
 30
0.0
 10
-268.184903
 20
-124.021219
 30
0.0
 10
-306.932939
 20
-124.271802
 30
0.0
 10
-306.932939
 20
-87.275735
 30
0.0
  0
LWPOLYLINE
  5
118
100
AcDbEntity
  8
Chasis_Motores
 62
7
100
AcDbPolyline
 90
4
 70
1
 10
-452.529524
 20
-87.520224
 30
0.0
 10
-444.653065
 20
-87.624255
 30
0.0
 10
-444.975335
 20
-129.105694
 30
0.0
 10
-447.921128
 20
-129.225883
 30
0.0
  0
LWPOLYLINE
  5
119
100
AcDbEntity
  8
Chasis_Motores
 62
7
100
AcDbPolyline
 90
4
 70
1
 10
-200.589582
 20
-87.552539
 30
0.0
 10
-205.197979
 20
-129.258085
 30
0.0
 10
-208.143785
 20
-129.136479
 30
0.0
 10
-208.464582
 20
-87.656542
 30
0.0
  0
LWPOLYLINE
  5
11a
100
AcDbEntity
  8
Chasis_Motores
 62
7
100
AcDbPolyline
 90
4
 70
1
 10
-331.602265
 20
-92.531565
 30
0.0
 10
-320.264391
 20
-92.531565
 30
0.0
 10
-320.264391
 20
-121.545694
 30
0.0
 10
-331.602265
 20
-121.545694
 30
0.0
  0
SPLINE
  5
11b
100
AcDbEntity
  8
Chasis_Motores
 62
7
100
AcDbSpline
 70
8
 71
3
 72
8
 73
4
 74
0
 40
0
 40
0
 40
0
 40
0
 40
1
 40
1
 40
1
 40
1
 10
-330.868403
 20
-278.483187
 30
0.0
 10
-410.323805
 20
-278.035143
 30
0.0
 10
-438.180860
 20
-177.802498
 30
0.0
 10
-440.683342
 20
-135.004649
 30
0.0
  0
LWPOLYLINE
  5
11c
100
AcDbEntity
  8
Chasis_Motores
 62
7
100
AcDbPolyline
 90
2
 70
0
 10
-330.868403
 20
-134.777622
 30
0.0
 10
-330.868403
 20
-278.483187
 30
0.0
  0
LWPOLYLINE
  5
11d
100
AcDbEntity
  8
Chasis_Motores
 62
7
100
AcDbPolyline
 90
3
 70
0
 10
-440.683342
 20
-135.004649
 30
0.0
 10
-440.683342
 20
-134.981972
 30
0.0
 10
-330.868403
 20
-134.777622
 30
0.0
  0
SPLINE
  5
11e
100
AcDbEntity
  8
Chasis_Motores
 62
7
100
AcDbSpline
 70
8
 71
3
 72
8
 73
4
 74
0
 40
0
 40
0
 40
0
 40
0
 40
1
 40
1
 40
1
 40
1
 10
-212.683331
 20
-135.004677
 30
0.0
 10
-215.185691
 20
-177.802526
 30
0.0
 10
-237.360883
 20
-275.383474
 30
0.0
 10
-322.498261
 20
-278.487638
 30
0.0
  0
LWPOLYLINE
  5
11f
100
AcDbEntity
  8
Chasis_Motores
 62
7
100
AcDbPolyline
 90
2
 70
0
 10
-322.498261
 20
-134.777622
 30
0.0
 10
-212.683331
 20
-135.004677
 30
0.0
  0
SPLINE
  5
120
100
AcDbEntity
  8
Patas
 62
7
100
AcDbSpline
 70
8
 71
3
 72
8
 73
4
 74
0
 40
0
 40
0
 40
0
 40
0
 40
1
 40
1
 40
1
 40
1
 10
-655.599940
 20
120.593877
 30
0.0
 10
-667.961291
 20
120.472271
 30
0.0
 10
-674.444948
 20
117.954850
 30
0.0
 10
-685.097518
 20
115.255984
 30
0.0
  0
LWPOLYLINE
  5
121
100
AcDbEntity
  8
Chasis_Motores
 62
7
100
AcDbPolyline
 90
2
 70
0
 10
-322.498261
 20
-278.487638
 30
0.0
 10
-322.498261
 20
-134.777622
 30
0.0
  0
SPLINE
  5
122
100
AcDbEntity
  8
Patas
 62
7
100
AcDbSpline
 70
8
 71
3
 72
8
 73
4
 74
0
 40
0
 40
0
 40
0
 40
0
 40
1
 40
1
 40
1
 40
1
 10
-684.728362
 20
115.080236
 30
0.0
 10
-687.772998
 20
114.406724
 30
0.0
 10
-690.429430
 20
112.272463
 30
0.0
 10
-691.645351
 20
109.134369
 30
0.0
  0
LWPOLYLINE
  5
123
100
AcDbEntity
  8
Patas
 62
7
100
AcDbPolyline
 90
2
 70
0
 10
-685.097518
 20
115.255984
 30
0.0
 10
-684.728362
 20
115.080236
 30
0.0
  0
SPLINE
  5
124
100
AcDbEntity
  8
Patas
 62
7
100
AcDbSpline
 70
8
 71
3
 72
8
 73
4
 74
0
 40
0
 40
0
 40
0
 40
0
 40
1
 40
1
 40
1
 40
1
 10
-692.598983
 20
106.673471
 30
0.0
 10
-694.532409
 20
101.683502
 30
0.0
 10
-692.072306
 20
96.110334
 30
0.0
 10
-687.082365
 20
94.176907
 30
0.0
  0
LWPOLYLINE
  5
125
100
AcDbEntity
  8
Patas
 62
7
100
AcDbPolyline
 90
2
 70
0
 10
-691.645351
 20
109.134369
 30
0.0
 10
-692.598983
 20
106.673471
 30
0.0
  0
SPLINE
  5
126
100
AcDbEntity
  8
Patas
 62
7
100
AcDbSpline
 70
8
 71
3
 72
8
 73
4
 74
0
 40
0
 40
0
 40
0
 40
0
 40
1
 40
1
 40
1
 40
1
 10
-635.267877
 20
-170.089569
 30
0.0
 10
-635.563786
 20
-170.689805
 30
0.0
 10
-635.569172
 20
-171.418734
 30
0.0
 10
-635.216570
 20
-172.049556
 30
0.0
  0
LWPOLYLINE
  5
127
100
AcDbEntity
  8
Patas
 62
7
100
AcDbPolyline
 90
4
 70
0
 10
-687.082365
 20
94.176907
 30
0.0
 10
-616.430041
 20
66.801912
 30
0.0
 10
-616.378734
 20
66.832809
 30
0.0
 10
-635.267877
 20
-170.089569
 30
0.0
  0
SPLINE
  5
128
100
AcDbEntity
  8
Patas
 62
7
100
AcDbSpline
 70
8
 71
3
 72
8
 73
4
 74
0
 40
0
 40
0
 40
0
 40
0
 40
1
 40
1
 40
1
 40
1
 10
-554.493628
 20
-316.488643
 30
0.0
 10
-553.923780
 20
-317.508265
 30
0.0
 10
-552.645071
 20
-317.869994
 30
0.0
 10
-551.625449
 20
-317.300230
 30
0.0
  0
LWPOLYLINE
  5
129
100
AcDbEntity
  8
Patas
 62
7
100
AcDbPolyline
 90
5
 70
0
 10
-635.216570
 20
-172.049556
 30
0.0
 10
-627.177487
 20
-186.434334
 30
0.0
 10
-624.912860
 20
-190.538787
 30
0.0
 10
-624.907191
 20
-190.495984
 30
0.0
 10
-554.493628
 20
-316.488643
 30
0.0
  0
SPLINE
  5
12a
100
AcDbEntity
  8
Patas
 62
7
100
AcDbSpline
 70
8
 71
3
 72
8
 73
4
 74
0
 40
0
 40
0
 40
0
 40
0
 40
1
 40
1
 40
1
 40
1
 10
-548.260696
 20
-315.420803
 30
0.0
 10
-547.241102
 20
-314.850954
 30
0.0
 10
-546.879345
 20
-313.570772
 30
0.0
 10
-547.449194
 20
-312.551150
 30
0.0
  0
LWPOLYLINE
  5
12b
100
AcDbEntity
  8
Patas
 62
7
100
AcDbPolyline
 90
2
 70
0
 10
-551.625449
 20
-317.300230
 30
0.0
 10
-548.260696
 20
-315.420803
 30
0.0
  0
SPLINE
  5
12c
100
AcDbEntity
  8
Patas
 62
7
100
AcDbSpline
 70
8
 71
3
 72
8
 73
4
 74
0
 40
0
 40
0
 40
0
 40
0
 40
1
 40
1
 40
1
 40
1
 10
-594.363033
 20
86.934784
 30
0.0
 10
-597.930520
 20
91.569402
 30
0.0
 10
-636.359074
 20
120.152721
 30
0.0
 10
-649.913698
 20
120.490980
 30
0.0
  0
SPLINE
  5
12d
100
AcDbEntity
  8
Patas
 62
7
100
AcDbSpline
 70
8
 71
3
 72
8
 73
4
 74
0
 40
0
 40
0
 40
0
 40
0
 40
1
 40
1
 40
1
 40
1
 10
-649.913698
 20
120.490980
 30
0.0
 10
-651.948803
 20
120.578003
 30
0.0
 10
-653.834296
 20
120.609184
 30
0.0
 10
-655.600224
 20
120.591893
 30
0.0
  0
LWPOLYLINE
  5
12e
100
AcDbEntity
  8
Patas
 62
7
100
AcDbPolyline
 90
3
 70
0
 10
-547.449194
 20
-312.551150
 30
0.0
 10
-623.231603
 20
-176.953776
 30
0.0
 10
-594.363033
 20
86.934784
 30
0.0
  0
SPLINE
  5
12f
100
AcDbEntity
  8
Patas
 62
7
100
AcDbSpline
 70
8
 71
3
 72
8
 73
4
 74
0
 40
0
 40
0
 40
0
 40
0
 40
1
 40
1
 40
1
 40
1
 10
-680.269380
 20
109.770180
 30
0.0
 10
-679.467827
 20
109.770180
 30
0.0
 10
-678.673049
 20
109.623345
 30
0.0
 10
-677.925638
 20
109.333616
 30
0.0
  0
SPLINE
  5
130
100
AcDbEntity
  8
Patas
 62
7
100
AcDbSpline
 70
8
 71
3
 72
8
 73
4
 74
0
 40
0
 40
0
 40
0
 40
0
 40
1
 40
1
 40
1
 40
1
 10
-677.925638
 20
109.333616
 30
0.0
 10
-674.597565
 20
108.043909
 30
0.0
 10
-672.945449
 20
104.300220
 30
0.0
 10
-674.235695
 20
100.972318
 30
0.0
  0
SPLINE
  5
131
100
AcDbEntity
  8
Patas
 62
7
100
AcDbSpline
 70
8
 71
3
 72
8
 73
4
 74
0
 40
0
 40
0
 40
0
 40
0
 40
1
 40
1
 40
1
 40
1
 10
-674.235695
 20
100.972318
 30
0.0
 10
-675.525487
 20
97.645096
 30
0.0
 10
-679.268098
 20
95.993121
 30
0.0
 10
-682.595546
 20
97.282375
 30
0.0
  0
SPLINE
  5
132
100
AcDbEntity
  8
Patas
 62
7
100
AcDbSpline
 70
8
 71
3
 72
8
 73
4
 74
0
 40
0
 40
0
 40
0
 40
0
 40
1
 40
1
 40
1
 40
1
 10
-682.595546
 20
97.282375
 30
0.0
 10
-685.923392
 20
98.571572
 30
0.0
 10
-687.576076
 20
102.314353
 30
0.0
 10
-686.286964
 20
105.642255
 30
0.0
  0
SPLINE
  5
133
100
AcDbEntity
  8
Patas
 62
7
100
AcDbSpline
 70
8
 71
3
 72
8
 73
4
 74
0
 40
0
 40
0
 40
0
 40
0
 40
1
 40
1
 40
1
 40
1
 10
-686.286964
 20
105.642255
 30
0.0
 10
-685.324290
 20
108.127531
 30
0.0
 10
-682.934570
 20
109.766806
 30
0.0
 10
-680.269380
 20
109.770180
 30
0.0
  0
LWPOLYLINE
  5
134
100
AcDbEntity
  8
Patas
 62
7
100
AcDbPolyline
 90
2
 70
0
 10
-655.600224
 20
120.591893
 30
0.0
 10
-655.599940
 20
120.593877
 30
0.0
  0
SPLINE
  5
135
100
AcDbEntity
  8
Patas
 62
7
100
AcDbSpline
 70
8
 71
3
 72
8
 73
4
 74
0
 40
0
 40
0
 40
0
 40
0
 40
1
 40
1
 40
1
 40
1
 10
-624.469096
 20
157.925424
 30
0.0
 10
-636.830447
 20
157.803817
 30
0.0
 10
-643.314076
 20
155.286397
 30
0.0
 10
-653.966646
 20
152.587531
 30
0.0
  0
LWPOLYLINE
  5
136
100
AcDbEntity
  8
Patas
 62
7
100
AcDbPolyline
 90
1
 70
1
 10
-680.269380
 20
109.770180
 30
0.0
  0
SPLINE
  5
137
100
AcDbEntity
  8
Patas
 62
7
100
AcDbSpline
 70
8
 71
3
 72
8
 73
4
 74
0
 40
0
 40
0
 40
0
 40
0
 40
1
 40
1
 40
1
 40
1
 10
-653.597518
 20
152.411783
 30
0.0
 10
-656.642154
 20
151.738271
 30
0.0
 10
-659.298557
 20
149.604009
 30
0.0
 10
-660.514507
 20
146.465915
 30
0.0
  0
LWPOLYLINE
  5
138
100
AcDbEntity
  8
Patas
 62
7
100
AcDbPolyline
 90
2
 70
0
 10
-653.966646
 20
152.587531
 30
0.0
 10
-653.597518
 20
152.411783
 30
0.0
  0
SPLINE
  5
139
100
AcDbEntity
  8
Patas
 62
7
100
AcDbSpline
 70
8
 71
3
 72
8
 73
4
 74
0
 40
0
 40
0
 40
0
 40
0
 40
1
 40
1
 40
1
 40
1
 10
-661.468110
 20
144.005017
 30
0.0
 10
-663.401565
 20
139.015049
 30
0.0
 10
-660.941461
 20
133.441880
 30
0.0
 10
-655.951521
 20
131.508454
 30
0.0
  0
LWPOLYLINE
  5
13a
100
AcDbEntity
  8
Patas
 62
7
100
AcDbPolyline
 90
2
 70
0
 10
-660.514507
 20
146.465915
 30
0.0
 10
-661.468110
 20
144.005017
 30
0.0
  0
SPLINE
  5
13b
100
AcDbEntity
  8
Patas
 62
7
100
AcDbSpline
 70
8
 71
3
 72
8
 73
4
 74
0
 40
0
 40
0
 40
0
 40
0
 40
1
 40
1
 40
1
 40
1
 10
-604.137033
 20
-132.758050
 30
0.0
 10
-604.432942
 20
-133.358258
 30
0.0
 10
-604.438299
 20
-134.087187
 30
0.0
 10
-604.085726
 20
-134.718009
 30
0.0
  0
LWPOLYLINE
  5
13c
100
AcDbEntity
  8
Patas
 62
7
100
AcDbPolyline
 90
4
 70
0
 10
-655.951521
 20
131.508454
 30
0.0
 10
-585.299169
 20
104.133458
 30
0.0
 10
-585.247861
 20
104.164356
 30
0.0
 10
-604.137033
 20
-132.758050
 30
0.0
  0
SPLINE
  5
13d
100
AcDbEntity
  8
Patas
 62
7
100
AcDbSpline
 70
8
 71
3
 72
8
 73
4
 74
0
 40
0
 40
0
 40
0
 40
0
 40
1
 40
1
 40
1
 40
1
 10
-523.362756
 20
-279.157068
 30
0.0
 10
-522.792935
 20
-280.176718
 30
0.0
 10
-521.514227
 20
-280.538419
 30
0.0
 10
-520.494605
 20
-279.968655
 30
0.0
  0
LWPOLYLINE
  5
13e
100
AcDbEntity
  8
Patas
 62
7
100
AcDbPolyline
 90
5
 70
0
 10
-604.085726
 20
-134.718009
 30
0.0
 10
-596.046671
 20
-149.102787
 30
0.0
 10
-593.782016
 20
-153.207241
 30
0.0
 10
-593.776346
 20
-153.164438
 30
0.0
 10
-523.362756
 20
-279.157068
 30
0.0
  0
SPLINE
  5
13f
100
AcDbEntity
  8
Patas
 62
7
100
AcDbSpline
 70
8
 71
3
 72
8
 73
4
 74
0
 40
0
 40
0
 40
0
 40
0
 40
1
 40
1
 40
1
 40
1
 10
-517.129852
 20
-278.089228
 30
0.0
 10
-516.110230
 20
-277.519380
 30
0.0
 10
-515.748501
 20
-276.239197
 30
0.0
 10
-516.318321
 20
-275.219575
 30
0.0
  0
LWPOLYLINE
  5
140
100
AcDbEntity
  8
Patas
 62
7
100
AcDbPolyline
 90
2
 70
0
 10
-520.494605
 20
-279.968655
 30
0.0
 10
-517.129852
 20
-278.089228
 30
0.0
  0
SPLINE
  5
141
100
AcDbEntity
  8
Patas
 62
7
100
AcDbSpline
 70
8
 71
3
 72
8
 73
4
 74
0
 40
0
 40
0
 40
0
 40
0
 40
1
 40
1
 40
1
 40
1
 10
-563.232161
 20
124.266302
 30
0.0
 10
-566.799619
 20
128.900920
 30
0.0
 10
-605.228202
 20
157.484239
 30
0.0
 10
-618.782797
 20
157.822498
 30
0.0
  0
SPLINE
  5
142
100
AcDbEntity
  8
Patas
 62
7
100
AcDbSpline
 70
8
 71
3
 72
8
 73
4
 74
0
 40
0
 40
0
 40
0
 40
0
 40
1
 40
1
 40
1
 40
1
 10
-618.782797
 20
157.822498
 30
0.0
 10
-620.817931
 20
157.909521
 30
0.0
 10
-622.703424
 20
157.940702
 30
0.0
 10
-624.469323
 20
157.923411
 30
0.0
  0
LWPOLYLINE
  5
143
100
AcDbEntity
  8
Patas
 62
7
100
AcDbPolyline
 90
3
 70
0
 10
-516.318321
 20
-275.219575
 30
0.0
 10
-592.100731
 20
-139.622258
 30
0.0
 10
-563.232161
 20
124.266302
 30
0.0
  0
SPLINE
  5
144
100
AcDbEntity
  8
Patas
 62
7
100
AcDbSpline
 70
8
 71
3
 72
8
 73
4
 74
0
 40
0
 40
0
 40
0
 40
0
 40
1
 40
1
 40
1
 40
1
 10
-649.138535
 20
147.101726
 30
0.0
 10
-648.336954
 20
147.101726
 30
0.0
 10
-647.542205
 20
146.954891
 30
0.0
 10
-646.794765
 20
146.665162
 30
0.0
  0
SPLINE
  5
145
100
AcDbEntity
  8
Patas
 62
7
100
AcDbSpline
 70
8
 71
3
 72
8
 73
4
 74
0
 40
0
 40
0
 40
0
 40
0
 40
1
 40
1
 40
1
 40
1
 10
-646.794765
 20
146.665162
 30
0.0
 10
-643.466693
 20
145.375455
 30
0.0
 10
-641.814576
 20
141.631739
 30
0.0
 10
-643.104850
 20
138.303865
 30
0.0
  0
SPLINE
  5
146
100
AcDbEntity
  8
Patas
 62
7
100
AcDbSpline
 70
8
 71
3
 72
8
 73
4
 74
0
 40
0
 40
0
 40
0
 40
0
 40
1
 40
1
 40
1
 40
1
 10
-643.104850
 20
138.303865
 30
0.0
 10
-644.394614
 20
134.976614
 30
0.0
 10
-648.137254
 20
133.324668
 30
0.0
 10
-651.464702
 20
134.613921
 30
0.0
  0
SPLINE
  5
147
100
AcDbEntity
  8
Patas
 62
7
100
AcDbSpline
 70
8
 71
3
 72
8
 73
4
 74
0
 40
0
 40
0
 40
0
 40
0
 40
1
 40
1
 40
1
 40
1
 10
-651.464702
 20
134.613921
 30
0.0
 10
-654.792548
 20
135.903090
 30
0.0
 10
-656.445203
 20
139.645899
 30
0.0
 10
-655.156120
 20
142.973802
 30
0.0
  0
SPLINE
  5
148
100
AcDbEntity
  8
Patas
 62
7
100
AcDbSpline
 70
8
 71
3
 72
8
 73
4
 74
0
 40
0
 40
0
 40
0
 40
0
 40
1
 40
1
 40
1
 40
1
 10
-655.156120
 20
142.973802
 30
0.0
 10
-654.193417
 20
145.459077
 30
0.0
 10
-651.803698
 20
147.098353
 30
0.0
 10
-649.138535
 20
147.101726
 30
0.0
  0
LWPOLYLINE
  5
149
100
AcDbEntity
  8
Patas
 62
7
100
AcDbPolyline
 90
2
 70
0
 10
-624.469323
 20
157.923411
 30
0.0
 10
-624.469096
 20
157.925424
 30
0.0
  0
SPLINE
  5
14a
100
AcDbEntity
  8
Patas
 62
7
100
AcDbSpline
 70
8
 71
3
 72
8
 73
4
 74
0
 40
0
 40
0
 40
0
 40
0
 40
1
 40
1
 40
1
 40
1
 10
-590.799657
 20
194.999131
 30
0.0
 10
-603.161008
 20
194.877524
 30
0.0
 10
-609.644636
 20
192.360104
 30
0.0
 10
-620.297206
 20
189.661238
 30
0.0
  0
LWPOLYLINE
  5
14b
100
AcDbEntity
  8
Patas
 62
7
100
AcDbPolyline
 90
1
 70
1
 10
-649.138535
 20
147.101726
 30
0.0
  0
SPLINE
  5
14c
100
AcDbEntity
  8
Patas
 62
7
100
AcDbSpline
 70
8
 71
3
 72
8
 73
4
 74
0
 40
0
 40
0
 40
0
 40
0
 40
1
 40
1
 40
1
 40
1
 10
-619.928079
 20
189.485490
 30
0.0
 10
-622.972715
 20
188.811978
 30
0.0
 10
-625.629146
 20
186.677688
 30
0.0
 10
-626.845068
 20
183.539622
 30
0.0
  0
LWPOLYLINE
  5
14d
100
AcDbEntity
  8
Patas
 62
7
100
AcDbPolyline
 90
2
 70
0
 10
-620.297206
 20
189.661238
 30
0.0
 10
-619.928079
 20
189.485490
 30
0.0
  0
SPLINE
  5
14e
100
AcDbEntity
  8
Patas
 62
7
100
AcDbSpline
 70
8
 71
3
 72
8
 73
4
 74
0
 40
0
 40
0
 40
0
 40
0
 40
1
 40
1
 40
1
 40
1
 10
-627.798699
 20
181.078724
 30
0.0
 10
-629.732126
 20
176.088756
 30
0.0
 10
-627.272022
 20
170.515587
 30
0.0
 10
-622.282082
 20
168.582161
 30
0.0
  0
LWPOLYLINE
  5
14f
100
AcDbEntity
  8
Patas
 62
7
100
AcDbPolyline
 90
2
 70
0
 10
-626.845068
 20
183.539622
 30
0.0
 10
-627.798699
 20
181.078724
 30
0.0
  0
SPLINE
  5
150
100
AcDbEntity
  8
Patas
 62
7
100
AcDbSpline
 70
8
 71
3
 72
8
 73
4
 74
0
 40
0
 40
0
 40
0
 40
0
 40
1
 40
1
 40
1
 40
1
 10
-570.467594
 20
-95.684627
 30
0.0
 10
-570.763502
 20
-96.284835
 30
0.0
 10
-570.768860
 20
-97.013764
 30
0.0
 10
-570.416287
 20
-97.644586
 30
0.0
  0
LWPOLYLINE
  5
151
100
AcDbEntity
  8
Patas
 62
7
100
AcDbPolyline
 90
4
 70
0
 10
-622.282082
 20
168.582161
 30
0.0
 10
-551.629729
 20
141.207137
 30
0.0
 10
-551.578422
 20
141.237751
 30
0.0
 10
-570.467594
 20
-95.684627
 30
0.0
  0
SPLINE
  5
152
100
AcDbEntity
  8
Patas
 62
7
100
AcDbSpline
 70
8
 71
3
 72
8
 73
4
 74
0
 40
0
 40
0
 40
0
 40
0
 40
1
 40
1
 40
1
 40
1
 10
-489.693345
 20
-242.083672
 30
0.0
 10
-489.123496
 20
-243.103294
 30
0.0
 10
-487.844787
 20
-243.465024
 30
0.0
 10
-486.825165
 20
-242.895232
 30
0.0
  0
LWPOLYLINE
  5
153
100
AcDbEntity
  8
Patas
 62
7
100
AcDbPolyline
 90
5
 70
0
 10
-570.416287
 20
-97.644586
 30
0.0
 10
-562.377232
 20
-112.029364
 30
0.0
 10
-560.112576
 20
-116.133817
 30
0.0
 10
-560.106907
 20
-116.091014
 30
0.0
 10
-489.693345
 20
-242.083672
 30
0.0
  0
SPLINE
  5
154
100
AcDbEntity
  8
Patas
 62
7
100
AcDbSpline
 70
8
 71
3
 72
8
 73
4
 74
0
 40
0
 40
0
 40
0
 40
0
 40
1
 40
1
 40
1
 40
1
 10
-483.460413
 20
-241.015805
 30
0.0
 10
-482.440819
 20
-240.445956
 30
0.0
 10
-482.079061
 20
-239.165802
 30
0.0
 10
-482.648882
 20
-238.146180
 30
0.0
  0
LWPOLYLINE
  5
155
100
AcDbEntity
  8
Patas
 62
7
100
AcDbPolyline
 90
2
 70
0
 10
-486.825165
 20
-242.895232
 30
0.0
 10
-483.460413
 20
-241.015805
 30
0.0
  0
SPLINE
  5
156
100
AcDbEntity
  8
Patas
 62
7
100
AcDbSpline
 70
8
 71
3
 72
8
 73
4
 74
0
 40
0
 40
0
 40
0
 40
0
 40
1
 40
1
 40
1
 40
1
 10
-529.562721
 20
161.339868
 30
0.0
 10
-533.130180
 20
165.974513
 30
0.0
 10
-571.558762
 20
194.557833
 30
0.0
 10
-585.113386
 20
194.896091
 30
0.0
  0
SPLINE
  5
157
100
AcDbEntity
  8
Patas
 62
7
100
AcDbSpline
 70
8
 71
3
 72
8
 73
4
 74
0
 40
0
 40
0
 40
0
 40
0
 40
1
 40
1
 40
1
 40
1
 10
-585.113386
 20
194.896091
 30
0.0
 10
-587.148491
 20
194.983115
 30
0.0
 10
-589.033984
 20
195.014580
 30
0.0
 10
-590.799883
 20
194.997005
 30
0.0
  0
LWPOLYLINE
  5
158
100
AcDbEntity
  8
Patas
 62
7
100
AcDbPolyline
 90
3
 70
0
 10
-482.648882
 20
-238.146180
 30
0.0
 10
-558.431291
 20
-102.548665
 30
0.0
 10
-529.562721
 20
161.339868
 30
0.0
  0
SPLINE
  5
159
100
AcDbEntity
  8
Patas
 62
7
100
AcDbSpline
 70
8
 71
3
 72
8
 73
4
 74
0
 40
0
 40
0
 40
0
 40
0
 40
1
 40
1
 40
1
 40
1
 10
-615.469096
 20
184.175433
 30
0.0
 10
-614.667543
 20
184.175433
 30
0.0
 10
-613.872765
 20
184.028598
 30
0.0
 10
-613.125354
 20
183.738841
 30
0.0
  0
SPLINE
  5
15a
100
AcDbEntity
  8
Patas
 62
7
100
AcDbSpline
 70
8
 71
3
 72
8
 73
4
 74
0
 40
0
 40
0
 40
0
 40
0
 40
1
 40
1
 40
1
 40
1
 10
-613.125354
 20
183.738841
 30
0.0
 10
-609.797282
 20
182.449162
 30
0.0
 10
-608.145137
 20
178.705446
 30
0.0
 10
-609.435411
 20
175.377543
 30
0.0
  0
SPLINE
  5
15b
100
AcDbEntity
  8
Patas
 62
7
100
AcDbSpline
 70
8
 71
3
 72
8
 73
4
 74
0
 40
0
 40
0
 40
0
 40
0
 40
1
 40
1
 40
1
 40
1
 10
-609.435411
 20
175.377543
 30
0.0
 10
-610.725203
 20
172.050321
 30
0.0
 10
-614.467814
 20
170.398375
 30
0.0
 10
-617.795263
 20
171.687628
 30
0.0
  0
SPLINE
  5
15c
100
AcDbEntity
  8
Patas
 62
7
100
AcDbSpline
 70
8
 71
3
 72
8
 73
4
 74
0
 40
0
 40
0
 40
0
 40
0
 40
1
 40
1
 40
1
 40
1
 10
-617.795263
 20
171.687628
 30
0.0
 10
-621.123109
 20
172.976797
 30
0.0
 10
-622.775792
 20
176.719606
 30
0.0
 10
-621.486680
 20
180.047509
 30
0.0
  0
SPLINE
  5
15d
100
AcDbEntity
  8
Patas
 62
7
100
AcDbSpline
 70
8
 71
3
 72
8
 73
4
 74
0
 40
0
 40
0
 40
0
 40
0
 40
1
 40
1
 40
1
 40
1
 10
-621.486680
 20
180.047509
 30
0.0
 10
-620.524006
 20
182.532784
 30
0.0
 10
-618.134287
 20
184.172060
 30
0.0
 10
-615.469096
 20
184.175433
 30
0.0
  0
LWPOLYLINE
  5
15e
100
AcDbEntity
  8
Patas
 62
7
100
AcDbPolyline
 90
2
 70
0
 10
-590.799883
 20
194.997005
 30
0.0
 10
-590.799657
 20
194.999131
 30
0.0
  0
SPLINE
  5
15f
100
AcDbEntity
  8
Patas
 62
7
100
AcDbSpline
 70
8
 71
3
 72
8
 73
4
 74
0
 40
0
 40
0
 40
0
 40
0
 40
1
 40
1
 40
1
 40
1
 10
-103.182214
 20
229.070952
 30
0.0
 10
-103.772749
 20
228.816891
 30
0.0
 10
-104.346918
 20
228.499823
 30
0.0
 10
-104.896054
 20
228.117817
 30
0.0
  0
LWPOLYLINE
  5
160
100
AcDbEntity
  8
Patas
 62
7
100
AcDbPolyline
 90
1
 70
1
 10
-615.469096
 20
184.175433
 30
0.0
  0
SPLINE
  5
161
100
AcDbEntity
  8
Patas
 62
7
100
AcDbSpline
 70
8
 71
3
 72
8
 73
4
 74
0
 40
0
 40
0
 40
0
 40
0
 40
1
 40
1
 40
1
 40
1
 10
-174.676058
 20
179.597261
 30
0.0
 10
-179.069748
 20
176.542251
 30
0.0
 10
-180.146969
 20
170.547130
 30
0.0
 10
-177.091959
 20
166.153439
 30
0.0
  0
LWPOLYLINE
  5
162
100
AcDbEntity
  8
Patas
 62
7
100
AcDbPolyline
 90
2
 70
0
 10
-104.896054
 20
228.117817
 30
0.0
 10
-174.676058
 20
179.597261
 30
0.0
  0
SPLINE
  5
163
100
AcDbEntity
  8
Patas
 62
7
100
AcDbSpline
 70
8
 71
3
 72
8
 73
4
 74
0
 40
0
 40
0
 40
0
 40
0
 40
1
 40
1
 40
1
 40
1
 10
-175.585949
 20
163.986632
 30
0.0
 10
-172.530950
 20
159.592967
 30
0.0
 10
-166.534467
 20
158.516313
 30
0.0
 10
-162.140802
 20
161.571311
 30
0.0
  0
LWPOLYLINE
  5
164
100
AcDbEntity
  8
Patas
 62
7
100
AcDbPolyline
 90
2
 70
0
 10
-177.091959
 20
166.153439
 30
0.0
 10
-175.585949
 20
163.986632
 30
0.0
  0
SPLINE
  5
165
100
AcDbEntity
  8
Patas
 62
7
100
AcDbSpline
 70
8
 71
3
 72
8
 73
4
 74
0
 40
0
 40
0
 40
0
 40
0
 40
1
 40
1
 40
1
 40
1
 10
60.531452
 20
168.319058
 30
0.0
 10
61.613543
 20
168.818926
 30
0.0
 10
62.083001
 20
170.091533
 30
0.0
 10
61.583133
 20
171.173624
 30
0.0
  0
LWPOLYLINE
  5
166
100
AcDbEntity
  8
Patas
 62
7
100
AcDbPolyline
 90
6
 70
0
 10
-162.140802
 20
161.571311
 30
0.0
 10
-102.079127
 20
203.332225
 30
0.0
 10
11.443340
 20
145.431583
 30
0.0
 10
24.289851
 20
151.465903
 30
0.0
 10
24.188997
 20
151.530787
 30
0.0
 10
60.531452
 20
168.319058
 30
0.0
  0
SPLINE
  5
167
100
AcDbEntity
  8
Patas
 62
7
100
AcDbSpline
 70
8
 71
3
 72
8
 73
4
 74
0
 40
0
 40
0
 40
0
 40
0
 40
1
 40
1
 40
1
 40
1
 10
59.933734
 20
174.744164
 30
0.0
 10
59.433866
 20
175.826255
 30
0.0
 10
58.159923
 20
176.295158
 30
0.0
 10
57.077832
 20
175.795290
 30
0.0
  0
LWPOLYLINE
  5
168
100
AcDbEntity
  8
Patas
 62
7
100
AcDbPolyline
 90
2
 70
0
 10
61.583133
 20
171.173624
 30
0.0
 10
59.933734
 20
174.744164
 30
0.0
  0
SPLINE
  5
169
100
AcDbEntity
  8
Patas
 62
7
100
AcDbSpline
 70
8
 71
3
 72
8
 73
4
 74
0
 40
0
 40
0
 40
0
 40
0
 40
1
 40
1
 40
1
 40
1
 10
-93.870116
 20
228.113854
 30
0.0
 10
-96.572363
 20
229.999095
 30
0.0
 10
-100.095333
 20
230.400535
 30
0.0
 10
-103.182089
 20
229.070885
 30
0.0
  0
LWPOLYLINE
  5
16a
100
AcDbEntity
  8
Patas
 62
7
100
AcDbPolyline
 90
3
 70
0
 10
57.077832
 20
175.795290
 30
0.0
 10
15.989258
 20
156.814565
 30
0.0
 10
-93.870116
 20
228.113854
 30
0.0
  0
SPLINE
  5
16b
100
AcDbEntity
  8
Patas
 62
7
100
AcDbSpline
 70
8
 71
3
 72
8
 73
4
 74
0
 40
0
 40
0
 40
0
 40
0
 40
1
 40
1
 40
1
 40
1
 10
-168.456788
 20
178.265311
 30
0.0
 10
-165.634523
 20
179.483803
 30
0.0
 10
-162.344517
 20
178.545187
 30
0.0
 10
-160.589777
 20
176.021160
 30
0.0
  0
SPLINE
  5
16c
100
AcDbEntity
  8
Patas
 62
7
100
AcDbSpline
 70
8
 71
3
 72
8
 73
4
 74
0
 40
0
 40
0
 40
0
 40
0
 40
1
 40
1
 40
1
 40
1
 10
-160.589777
 20
176.021160
 30
0.0
 10
-158.552880
 20
173.090940
 30
0.0
 10
-159.276816
 20
169.064342
 30
0.0
 10
-162.206818
 20
167.027108
 30
0.0
  0
SPLINE
  5
16d
100
AcDbEntity
  8
Patas
 62
7
100
AcDbSpline
 70
8
 71
3
 72
8
 73
4
 74
0
 40
0
 40
0
 40
0
 40
0
 40
1
 40
1
 40
1
 40
1
 10
-162.206818
 20
167.027108
 30
0.0
 10
-165.136660
 20
164.989324
 30
0.0
 10
-169.163689
 20
165.712436
 30
0.0
 10
-171.201565
 20
168.642205
 30
0.0
  0
SPLINE
  5
16e
100
AcDbEntity
  8
Patas
 62
7
100
AcDbSpline
 70
8
 71
3
 72
8
 73
4
 74
0
 40
0
 40
0
 40
0
 40
0
 40
1
 40
1
 40
1
 40
1
 10
-171.201565
 20
168.642205
 30
0.0
 10
-173.239651
 20
171.572969
 30
0.0
 10
-172.515262
 20
175.601088
 30
0.0
 10
-169.583792
 20
177.638188
 30
0.0
  0
SPLINE
  5
16f
100
AcDbEntity
  8
Patas
 62
7
100
AcDbSpline
 70
8
 71
3
 72
8
 73
4
 74
0
 40
0
 40
0
 40
0
 40
0
 40
1
 40
1
 40
1
 40
1
 10
-169.583792
 20
177.638188
 30
0.0
 10
-169.230013
 20
177.884361
 30
0.0
 10
-168.852416
 20
178.094386
 30
0.0
 10
-168.456777
 20
178.265285
 30
0.0
  0
LWPOLYLINE
  5
170
100
AcDbEntity
  8
Patas
 62
7
100
AcDbPolyline
 90
2
 70
0
 10
-103.182089
 20
229.070885
 30
0.0
 10
-103.182214
 20
229.070952
 30
0.0
  0
SPLINE
  5
171
100
AcDbEntity
  8
Patas
 62
7
100
AcDbSpline
 70
8
 71
3
 72
8
 73
4
 74
0
 40
0
 40
0
 40
0
 40
0
 40
1
 40
1
 40
1
 40
1
 10
-99.783766
 20
264.737660
 30
0.0
 10
-100.374301
 20
264.483599
 30
0.0
 10
-100.948469
 20
264.166530
 30
0.0
 10
-101.497605
 20
263.784525
 30
0.0
  0
LWPOLYLINE
  5
172
100
AcDbEntity
  8
Patas
 62
7
100
AcDbPolyline
 90
1
 70
1
 10
-168.456777
 20
178.265285
 30
0.0
  0
SPLINE
  5
173
100
AcDbEntity
  8
Patas
 62
7
100
AcDbSpline
 70
8
 71
3
 72
8
 73
4
 74
0
 40
0
 40
0
 40
0
 40
0
 40
1
 40
1
 40
1
 40
1
 10
-171.277609
 20
215.263969
 30
0.0
 10
-175.671300
 20
212.208958
 30
0.0
 10
-176.748521
 20
206.213837
 30
0.0
 10
-173.693511
 20
201.820147
 30
0.0
  0
LWPOLYLINE
  5
174
100
AcDbEntity
  8
Patas
 62
7
100
AcDbPolyline
 90
2
 70
0
 10
-101.497605
 20
263.784525
 30
0.0
 10
-171.277609
 20
215.263969
 30
0.0
  0
SPLINE
  5
175
100
AcDbEntity
  8
Patas
 62
7
100
AcDbSpline
 70
8
 71
3
 72
8
 73
4
 74
0
 40
0
 40
0
 40
0
 40
0
 40
1
 40
1
 40
1
 40
1
 10
-172.187526
 20
199.653328
 30
0.0
 10
-169.132527
 20
195.259663
 30
0.0
 10
-163.136056
 20
194.183034
 30
0.0
 10
-158.742366
 20
197.238045
 30
0.0
  0
LWPOLYLINE
  5
176
100
AcDbEntity
  8
Patas
 62
7
100
AcDbPolyline
 90
2
 70
0
 10
-173.693511
 20
201.820147
 30
0.0
 10
-172.187526
 20
199.653328
 30
0.0
  0
SPLINE
  5
177
100
AcDbEntity
  8
Patas
 62
7
100
AcDbSpline
 70
8
 71
3
 72
8
 73
4
 74
0
 40
0
 40
0
 40
0
 40
0
 40
1
 40
1
 40
1
 40
1
 10
63.929888
 20
203.985791
 30
0.0
 10
65.011979
 20
204.485660
 30
0.0
 10
65.481437
 20
205.758266
 30
0.0
 10
64.981569
 20
206.840357
 30
0.0
  0
LWPOLYLINE
  5
178
100
AcDbEntity
  8
Patas
 62
7
100
AcDbPolyline
 90
6
 70
0
 10
-158.742366
 20
197.238045
 30
0.0
 10
-98.680679
 20
238.998933
 30
0.0
 10
14.841776
 20
181.098316
 30
0.0
 10
27.688287
 20
187.132636
 30
0.0
 10
27.587434
 20
187.197520
 30
0.0
 10
63.929888
 20
203.985791
 30
0.0
  0
SPLINE
  5
179
100
AcDbEntity
  8
Patas
 62
7
100
AcDbSpline
 70
8
 71
3
 72
8
 73
4
 74
0
 40
0
 40
0
 40
0
 40
0
 40
1
 40
1
 40
1
 40
1
 10
63.332183
 20
210.410871
 30
0.0
 10
62.832302
 20
211.492988
 30
0.0
 10
61.558360
 20
211.961891
 30
0.0
 10
60.476269
 20
211.462023
 30
0.0
  0
LWPOLYLINE
  5
17a
100
AcDbEntity
  8
Patas
 62
7
100
AcDbPolyline
 90
2
 70
0
 10
64.981569
 20
206.840357
 30
0.0
 10
63.332183
 20
210.410871
 30
0.0
  0
SPLINE
  5
17b
100
AcDbEntity
  8
Patas
 62
7
100
AcDbSpline
 70
8
 71
3
 72
8
 73
4
 74
0
 40
0
 40
0
 40
0
 40
0
 40
1
 40
1
 40
1
 40
1
 10
-90.471668
 20
263.780562
 30
0.0
 10
-93.173915
 20
265.665803
 30
0.0
 10
-96.696897
 20
266.067268
 30
0.0
 10
-99.783653
 20
264.737618
 30
0.0
  0
LWPOLYLINE
  5
17c
100
AcDbEntity
  8
Patas
 62
7
100
AcDbPolyline
 90
3
 70
0
 10
60.476269
 20
211.462023
 30
0.0
 10
19.387694
 20
192.481298
 30
0.0
 10
-90.471668
 20
263.780562
 30
0.0
  0
SPLINE
  5
17d
100
AcDbEntity
  8
Patas
 62
7
100
AcDbSpline
 70
8
 71
3
 72
8
 73
4
 74
0
 40
0
 40
0
 40
0
 40
0
 40
1
 40
1
 40
1
 40
1
 10
-165.058328
 20
213.931993
 30
0.0
 10
-162.235943
 20
215.150228
 30
0.0
 10
-158.946057
 20
214.211868
 30
0.0
 10
-157.191317
 20
211.687842
 30
0.0
  0
SPLINE
  5
17e
100
AcDbEntity
  8
Patas
 62
7
100
AcDbSpline
 70
8
 71
3
 72
8
 73
4
 74
0
 40
0
 40
0
 40
0
 40
0
 40
1
 40
1
 40
1
 40
1
 10
-157.191317
 20
211.687842
 30
0.0
 10
-155.154419
 20
208.757622
 30
0.0
 10
-155.878381
 20
204.731012
 30
0.0
 10
-158.808370
 20
202.693816
 30
0.0
  0
SPLINE
  5
17f
100
AcDbEntity
  8
Patas
 62
7
100
AcDbSpline
 70
8
 71
3
 72
8
 73
4
 74
0
 40
0
 40
0
 40
0
 40
0
 40
1
 40
1
 40
1
 40
1
 10
-158.808370
 20
202.693816
 30
0.0
 10
-161.738212
 20
200.656031
 30
0.0
 10
-165.765255
 20
201.379106
 30
0.0
 10
-167.803105
 20
204.308887
 30
0.0
  0
SPLINE
  5
180
100
AcDbEntity
  8
Patas
 62
7
100
AcDbSpline
 70
8
 71
3
 72
8
 73
4
 74
0
 40
0
 40
0
 40
0
 40
0
 40
1
 40
1
 40
1
 40
1
 10
-167.803105
 20
204.308887
 30
0.0
 10
-169.841191
 20
207.239651
 30
0.0
 10
-169.116813
 20
211.267795
 30
0.0
 10
-166.185357
 20
213.304858
 30
0.0
  0
SPLINE
  5
181
100
AcDbEntity
  8
Patas
 62
7
100
AcDbSpline
 70
8
 71
3
 72
8
 73
4
 74
0
 40
0
 40
0
 40
0
 40
0
 40
1
 40
1
 40
1
 40
1
 10
-166.185357
 20
213.304858
 30
0.0
 10
-165.831553
 20
213.551042
 30
0.0
 10
-165.453982
 20
213.761056
 30
0.0
 10
-165.058316
 20
213.931967
 30
0.0
  0
LWPOLYLINE
  5
182
100
AcDbEntity
  8
Patas
 62
7
100
AcDbPolyline
 90
2
 70
0
 10
-99.783653
 20
264.737618
 30
0.0
 10
-99.783766
 20
264.737660
 30
0.0
  0
SPLINE
  5
183
100
AcDbEntity
  8
Patas
 62
7
100
AcDbSpline
 70
8
 71
3
 72
8
 73
4
 74
0
 40
0
 40
0
 40
0
 40
0
 40
1
 40
1
 40
1
 40
1
 10
-104.658838
 20
155.776158
 30
0.0
 10
-105.249373
 20
155.522098
 30
0.0
 10
-105.823542
 20
155.205029
 30
0.0
 10
-106.372678
 20
154.823024
 30
0.0
  0
LWPOLYLINE
  5
184
100
AcDbEntity
  8
Patas
 62
7
100
AcDbPolyline
 90
1
 70
1
 10
-165.058316
 20
213.931967
 30
0.0
  0
SPLINE
  5
185
100
AcDbEntity
  8
Patas
 62
7
100
AcDbSpline
 70
8
 71
3
 72
8
 73
4
 74
0
 40
0
 40
0
 40
0
 40
0
 40
1
 40
1
 40
1
 40
1
 10
-176.152670
 20
106.302442
 30
0.0
 10
-180.546361
 20
103.247431
 30
0.0
 10
-181.623582
 20
97.252310
 30
0.0
 10
-178.568571
 20
92.858620
 30
0.0
  0
LWPOLYLINE
  5
186
100
AcDbEntity
  8
Patas
 62
7
100
AcDbPolyline
 90
2
 70
0
 10
-106.372678
 20
154.823024
 30
0.0
 10
-176.152670
 20
106.302442
 30
0.0
  0
SPLINE
  5
187
100
AcDbEntity
  8
Patas
 62
7
100
AcDbSpline
 70
8
 71
3
 72
8
 73
4
 74
0
 40
0
 40
0
 40
0
 40
0
 40
1
 40
1
 40
1
 40
1
 10
-177.062587
 20
90.691801
 30
0.0
 10
-174.007588
 20
86.298136
 30
0.0
 10
-168.011117
 20
85.221507
 30
0.0
 10
-163.617426
 20
88.276518
 30
0.0
  0
LWPOLYLINE
  5
188
100
AcDbEntity
  8
Patas
 62
7
100
AcDbPolyline
 90
2
 70
0
 10
-178.568571
 20
92.858620
 30
0.0
 10
-177.062587
 20
90.691801
 30
0.0
  0
SPLINE
  5
189
100
AcDbEntity
  8
Patas
 62
7
100
AcDbSpline
 70
8
 71
3
 72
8
 73
4
 74
0
 40
0
 40
0
 40
0
 40
0
 40
1
 40
1
 40
1
 40
1
 10
59.054802
 20
95.024253
 30
0.0
 10
60.136918
 20
95.524133
 30
0.0
 10
60.606377
 20
96.796739
 30
0.0
 10
60.106508
 20
97.878830
 30
0.0
  0
LWPOLYLINE
  5
18a
100
AcDbEntity
  8
Patas
 62
7
100
AcDbPolyline
 90
6
 70
0
 10
-163.617426
 20
88.276518
 30
0.0
 10
-103.555740
 20
130.037406
 30
0.0
 10
9.966716
 20
72.136789
 30
0.0
 10
22.813226
 20
78.171110
 30
0.0
 10
22.712373
 20
78.235993
 30
0.0
 10
59.054802
 20
95.024253
 30
0.0
  0
SPLINE
  5
18b
100
AcDbEntity
  8
Patas
 62
7
100
AcDbSpline
 70
8
 71
3
 72
8
 73
4
 74
0
 40
0
 40
0
 40
0
 40
0
 40
1
 40
1
 40
1
 40
1
 10
58.457122
 20
101.449344
 30
0.0
 10
57.957254
 20
102.531435
 30
0.0
 10
56.683311
 20
103.000339
 30
0.0
 10
55.601194
 20
102.500459
 30
0.0
  0
LWPOLYLINE
  5
18c
100
AcDbEntity
  8
Patas
 62
7
100
AcDbPolyline
 90
2
 70
0
 10
60.106508
 20
97.878830
 30
0.0
 10
58.457122
 20
101.449344
 30
0.0
  0
SPLINE
  5
18d
100
AcDbEntity
  8
Patas
 62
7
100
AcDbSpline
 70
8
 71
3
 72
8
 73
4
 74
0
 40
0
 40
0
 40
0
 40
0
 40
1
 40
1
 40
1
 40
1
 10
-95.346729
 20
154.819035
 30
0.0
 10
-98.048976
 20
156.704276
 30
0.0
 10
-101.571958
 20
157.105741
 30
0.0
 10
-104.658713
 20
155.776091
 30
0.0
  0
LWPOLYLINE
  5
18e
100
AcDbEntity
  8
Patas
 62
7
100
AcDbPolyline
 90
3
 70
0
 10
55.601194
 20
102.500459
 30
0.0
 10
14.512645
 20
83.519745
 30
0.0
 10
-95.346729
 20
154.819035
 30
0.0
  0
SPLINE
  5
18f
100
AcDbEntity
  8
Patas
 62
7
100
AcDbSpline
 70
8
 71
3
 72
8
 73
4
 74
0
 40
0
 40
0
 40
0
 40
0
 40
1
 40
1
 40
1
 40
1
 10
-169.933401
 20
104.970491
 30
0.0
 10
-167.111016
 20
106.188726
 30
0.0
 10
-163.821130
 20
105.250367
 30
0.0
 10
-162.066415
 20
102.726329
 30
0.0
  0
SPLINE
  5
190
100
AcDbEntity
  8
Patas
 62
7
100
AcDbSpline
 70
8
 71
3
 72
8
 73
4
 74
0
 40
0
 40
0
 40
0
 40
0
 40
1
 40
1
 40
1
 40
1
 10
-162.066415
 20
102.726329
 30
0.0
 10
-160.029492
 20
99.796121
 30
0.0
 10
-160.753454
 20
95.769511
 30
0.0
 10
-163.683443
 20
93.732314
 30
0.0
  0
SPLINE
  5
191
100
AcDbEntity
  8
Patas
 62
7
100
AcDbSpline
 70
8
 71
3
 72
8
 73
4
 74
0
 40
0
 40
0
 40
0
 40
0
 40
1
 40
1
 40
1
 40
1
 10
-163.683443
 20
93.732314
 30
0.0
 10
-166.613285
 20
91.694530
 30
0.0
 10
-170.640328
 20
92.417605
 30
0.0
 10
-172.678189
 20
95.347411
 30
0.0
  0
SPLINE
  5
192
100
AcDbEntity
  8
Patas
 62
7
100
AcDbSpline
 70
8
 71
3
 72
8
 73
4
 74
0
 40
0
 40
0
 40
0
 40
0
 40
1
 40
1
 40
1
 40
1
 10
-172.678189
 20
95.347411
 30
0.0
 10
-174.716263
 20
98.278150
 30
0.0
 10
-173.991886
 20
102.306294
 30
0.0
 10
-171.060442
 20
104.343382
 30
0.0
  0
SPLINE
  5
193
100
AcDbEntity
  8
Patas
 62
7
100
AcDbSpline
 70
8
 71
3
 72
8
 73
4
 74
0
 40
0
 40
0
 40
0
 40
0
 40
1
 40
1
 40
1
 40
1
 10
-171.060442
 20
104.343382
 30
0.0
 10
-170.706637
 20
104.589567
 30
0.0
 10
-170.329066
 20
104.799581
 30
0.0
 10
-169.933401
 20
104.970491
 30
0.0
  0
LWPOLYLINE
  5
194
100
AcDbEntity
  8
Patas
 62
7
100
AcDbPolyline
 90
2
 70
0
 10
-104.658713
 20
155.776091
 30
0.0
 10
-104.658838
 20
155.776158
 30
0.0
  0
SPLINE
  5
195
100
AcDbEntity
  8
Patas
 62
7
100
AcDbSpline
 70
8
 71
3
 72
8
 73
4
 74
0
 40
0
 40
0
 40
0
 40
0
 40
1
 40
1
 40
1
 40
1
 10
-101.260404
 20
191.442828
 30
0.0
 10
-101.850939
 20
191.188767
 30
0.0
 10
-102.425108
 20
190.871699
 30
0.0
 10
-102.974244
 20
190.489694
 30
0.0
  0
LWPOLYLINE
  5
196
100
AcDbEntity
  8
Patas
 62
7
100
AcDbPolyline
 90
1
 70
1
 10
-169.933401
 20
104.970491
 30
0.0
  0
SPLINE
  5
197
100
AcDbEntity
  8
Patas
 62
7
100
AcDbSpline
 70
8
 71
3
 72
8
 73
4
 74
0
 40
0
 40
0
 40
0
 40
0
 40
1
 40
1
 40
1
 40
1
 10
-172.754222
 20
141.969149
 30
0.0
 10
-177.147912
 20
138.914139
 30
0.0
 10
-178.225134
 20
132.919018
 30
0.0
 10
-175.170149
 20
128.525315
 30
0.0
  0
LWPOLYLINE
  5
198
100
AcDbEntity
  8
Patas
 62
7
100
AcDbPolyline
 90
2
 70
0
 10
-102.974244
 20
190.489694
 30
0.0
 10
-172.754222
 20
141.969149
 30
0.0
  0
SPLINE
  5
199
100
AcDbEntity
  8
Patas
 62
7
100
AcDbSpline
 70
8
 71
3
 72
8
 73
4
 74
0
 40
0
 40
0
 40
0
 40
0
 40
1
 40
1
 40
1
 40
1
 10
-173.664138
 20
126.358508
 30
0.0
 10
-170.609140
 20
121.964844
 30
0.0
 10
-164.612669
 20
120.888215
 30
0.0
 10
-160.218978
 20
123.943225
 30
0.0
  0
LWPOLYLINE
  5
19a
100
AcDbEntity
  8
Patas
 62
7
100
AcDbPolyline
 90
2
 70
0
 10
-175.170149
 20
128.525315
 30
0.0
 10
-173.664138
 20
126.358508
 30
0.0
  0
SPLINE
  5
19b
100
AcDbEntity
  8
Patas
 62
7
100
AcDbSpline
 70
8
 71
3
 72
8
 73
4
 74
0
 40
0
 40
0
 40
0
 40
0
 40
1
 40
1
 40
1
 40
1
 10
62.453250
 20
130.690960
 30
0.0
 10
63.535341
 20
131.190828
 30
0.0
 10
64.004799
 20
132.463435
 30
0.0
 10
63.504931
 20
133.545526
 30
0.0
  0
LWPOLYLINE
  5
19c
100
AcDbEntity
  8
Patas
 62
7
100
AcDbPolyline
 90
6
 70
0
 10
-160.218978
 20
123.943225
 30
0.0
 10
-100.157317
 20
165.704101
 30
0.0
 10
13.365138
 20
107.803485
 30
0.0
 10
26.211649
 20
113.837805
 30
0.0
 10
26.110796
 20
113.902689
 30
0.0
 10
62.453250
 20
130.690960
 30
0.0
  0
SPLINE
  5
19d
100
AcDbEntity
  8
Patas
 62
7
100
AcDbSpline
 70
8
 71
3
 72
8
 73
4
 74
0
 40
0
 40
0
 40
0
 40
0
 40
1
 40
1
 40
1
 40
1
 10
61.855544
 20
137.116040
 30
0.0
 10
61.355664
 20
138.198157
 30
0.0
 10
60.081721
 20
138.667060
 30
0.0
 10
58.999631
 20
138.167192
 30
0.0
  0
LWPOLYLINE
  5
19e
100
AcDbEntity
  8
Patas
 62
7
100
AcDbPolyline
 90
2
 70
0
 10
63.504931
 20
133.545526
 30
0.0
 10
61.855544
 20
137.116040
 30
0.0
  0
SPLINE
  5
19f
100
AcDbEntity
  8
Patas
 62
7
100
AcDbSpline
 70
8
 71
3
 72
8
 73
4
 74
0
 40
0
 40
0
 40
0
 40
0
 40
1
 40
1
 40
1
 40
1
 10
-91.948306
 20
190.485731
 30
0.0
 10
-94.650553
 20
192.370972
 30
0.0
 10
-98.173535
 20
192.772437
 30
0.0
 10
-101.260291
 20
191.442787
 30
0.0
  0
LWPOLYLINE
  5
1a0
100
AcDbEntity
  8
Patas
 62
7
100
AcDbPolyline
 90
3
 70
0
 10
58.999631
 20
138.167192
 30
0.0
 10
17.911056
 20
119.186467
 30
0.0
 10
-91.948306
 20
190.485731
 30
0.0
  0
SPLINE
  5
1a1
100
AcDbEntity
  8
Patas
 62
7
100
AcDbSpline
 70
8
 71
3
 72
8
 73
4
 74
0
 40
0
 40
0
 40
0
 40
0
 40
1
 40
1
 40
1
 40
1
 10
-166.534941
 20
140.637173
 30
0.0
 10
-163.712556
 20
141.855408
 30
0.0
 10
-160.422695
 20
140.917037
 30
0.0
 10
-158.667955
 20
138.393011
 30
0.0
  0
SPLINE
  5
1a2
100
AcDbEntity
  8
Patas
 62
7
100
AcDbSpline
 70
8
 71
3
 72
8
 73
4
 74
0
 40
0
 40
0
 40
0
 40
0
 40
1
 40
1
 40
1
 40
1
 10
-158.667955
 20
138.393011
 30
0.0
 10
-156.631058
 20
135.462790
 30
0.0
 10
-157.354994
 20
131.436193
 30
0.0
 10
-160.284983
 20
129.398996
 30
0.0
  0
SPLINE
  5
1a3
100
AcDbEntity
  8
Patas
 62
7
100
AcDbSpline
 70
8
 71
3
 72
8
 73
4
 74
0
 40
0
 40
0
 40
0
 40
0
 40
1
 40
1
 40
1
 40
1
 10
-160.284983
 20
129.398996
 30
0.0
 10
-163.214825
 20
127.361212
 30
0.0
 10
-167.241867
 20
128.084287
 30
0.0
 10
-169.279717
 20
131.014067
 30
0.0
  0
SPLINE
  5
1a4
100
AcDbEntity
  8
Patas
 62
7
100
AcDbSpline
 70
8
 71
3
 72
8
 73
4
 74
0
 40
0
 40
0
 40
0
 40
0
 40
1
 40
1
 40
1
 40
1
 10
-169.279717
 20
131.014067
 30
0.0
 10
-171.317803
 20
133.944832
 30
0.0
 10
-170.593426
 20
137.972976
 30
0.0
 10
-167.661970
 20
140.010038
 30
0.0
  0
SPLINE
  5
1a5
100
AcDbEntity
  8
Patas
 62
7
100
AcDbSpline
 70
8
 71
3
 72
8
 73
4
 74
0
 40
0
 40
0
 40
0
 40
0
 40
1
 40
1
 40
1
 40
1
 10
-167.661970
 20
140.010038
 30
0.0
 10
-167.308191
 20
140.256211
 30
0.0
 10
-166.930594
 20
140.466237
 30
0.0
 10
-166.534929
 20
140.637148
 30
0.0
  0
LWPOLYLINE
  5
1a6
100
AcDbEntity
  8
Patas
 62
7
100
AcDbPolyline
 90
2
 70
0
 10
-101.260291
 20
191.442787
 30
0.0
 10
-101.260404
 20
191.442828
 30
0.0
  0
LWPOLYLINE
  5
1a7
100
AcDbEntity
  8
Patas
 62
7
100
AcDbPolyline
 90
1
 70
1
 10
-166.534929
 20
140.637148
 30
0.0
  0
SPLINE
  5
1a8
100
AcDbEntity
  8
Patas
 62
7
100
AcDbSpline
 70
8
 71
3
 72
8
 73
4
 74
0
 40
0
 40
0
 40
0
 40
0
 40
1
 40
1
 40
1
 40
1
 10
-100.616801
 20
-15.004851
 30
0.0
 10
-128.992221
 20
-28.396976
 30
0.0
 10
-157.033447
 20
-54.286481
 30
0.0
 10
-163.946584
 20
-61.735017
 30
0.0
  0
LWPOLYLINE
  5
1a9
100
AcDbEntity
  8
Patas
 62
7
100
AcDbPolyline
 90
1
 70
1
 10
-100.616801
 20
-15.004851
 30
0.0
  0
SPLINE
  5
1aa
100
AcDbEntity
  8
Patas
 62
7
100
AcDbSpline
 70
8
 71
3
 72
8
 73
4
 74
0
 40
0
 40
0
 40
0
 40
0
 40
1
 40
1
 40
1
 40
1
 10
-163.838864
 20
-61.685256
 30
0.0
 10
-167.190233
 20
-64.923147
 30
0.0
 10
-167.797767
 20
-70.168087
 30
0.0
 10
-165.047865
 20
-74.122971
 30
0.0
  0
LWPOLYLINE
  5
1ab
100
AcDbEntity
  8
Patas
 62
7
100
AcDbPolyline
 90
2
 70
0
 10
-163.946584
 20
-61.735017
 30
0.0
 10
-163.838864
 20
-61.685256
 30
0.0
  0
SPLINE
  5
1ac
100
AcDbEntity
  8
Patas
 62
7
100
AcDbSpline
 70
8
 71
3
 72
8
 73
4
 74
0
 40
0
 40
0
 40
0
 40
0
 40
1
 40
1
 40
1
 40
1
 10
-163.541875
 20
-76.289750
 30
0.0
 10
-160.486886
 20
-80.683414
 30
0.0
 10
-154.491720
 20
-81.760718
 30
0.0
 10
-150.098057
 20
-78.705655
 30
0.0
  0
LWPOLYLINE
  5
1ad
100
AcDbEntity
  8
Patas
 62
7
100
AcDbPolyline
 90
2
 70
0
 10
-165.047865
 20
-74.122971
 30
0.0
 10
-163.541875
 20
-76.289750
 30
0.0
  0
SPLINE
  5
1ae
100
AcDbEntity
  8
Patas
 62
7
100
AcDbSpline
 70
8
 71
3
 72
8
 73
4
 74
0
 40
0
 40
0
 40
0
 40
0
 40
1
 40
1
 40
1
 40
1
 10
59.097832
 20
-113.969416
 30
0.0
 10
59.521790
 20
-114.666150
 30
0.0
 10
60.287429
 20
-115.047992
 30
0.0
 10
61.072537
 20
-114.988679
 30
0.0
  0
LWPOLYLINE
  5
1af
100
AcDbEntity
  8
Patas
 62
7
100
AcDbPolyline
 90
3
 70
0
 10
-150.098057
 20
-78.705655
 30
0.0
 10
-90.047747
 20
-36.951613
 30
0.0
 10
59.097832
 20
-113.969416
 30
0.0
  0
SPLINE
  5
1b0
100
AcDbEntity
  8
Patas
 62
7
100
AcDbSpline
 70
8
 71
3
 72
8
 73
4
 74
0
 40
0
 40
0
 40
0
 40
0
 40
1
 40
1
 40
1
 40
1
 10
134.873571
 20
-81.051451
 30
0.0
 10
135.948961
 20
-80.554678
 30
0.0
 10
136.413663
 20
-79.289057
 30
0.0
 10
135.916875
 20
-78.213633
 30
0.0
  0
LWPOLYLINE
  5
1b1
100
AcDbEntity
  8
Patas
 62
7
100
AcDbPolyline
 90
5
 70
0
 10
61.072537
 20
-114.988679
 30
0.0
 10
61.443458
 20
-115.180347
 30
0.0
 10
74.289920
 20
-109.145920
 30
0.0
 10
74.188932
 20
-109.084510
 30
0.0
 10
134.873571
 20
-81.051451
 30
0.0
  0
SPLINE
  5
1b2
100
AcDbEntity
  8
Patas
 62
7
100
AcDbSpline
 70
8
 71
3
 72
8
 73
4
 74
0
 40
0
 40
0
 40
0
 40
0
 40
1
 40
1
 40
1
 40
1
 10
134.277928
 20
-74.665720
 30
0.0
 10
133.781140
 20
-73.590295
 30
0.0
 10
132.516859
 20
-73.125024
 30
0.0
 10
131.441468
 20
-73.621797
 30
0.0
  0
LWPOLYLINE
  5
1b3
100
AcDbEntity
  8
Patas
 62
7
100
AcDbPolyline
 90
2
 70
0
 10
135.916875
 20
-78.213633
 30
0.0
 10
134.277928
 20
-74.665720
 30
0.0
  0
SPLINE
  5
1b4
100
AcDbEntity
  8
Patas
 62
7
100
AcDbSpline
 70
8
 71
3
 72
8
 73
4
 74
0
 40
0
 40
0
 40
0
 40
0
 40
1
 40
1
 40
1
 40
1
 10
-81.984558
 20
-12.602020
 30
0.0
 10
-85.372269
 20
-10.559054
 30
0.0
 10
-89.179753
 20
-10.181798
 30
0.0
 10
-91.823467
 20
-11.283260
 30
0.0
  0
SPLINE
  5
1b5
100
AcDbEntity
  8
Patas
 62
7
100
AcDbSpline
 70
8
 71
3
 72
8
 73
4
 74
0
 40
0
 40
0
 40
0
 40
0
 40
1
 40
1
 40
1
 40
1
 10
-91.823467
 20
-11.283260
 30
0.0
 10
-94.742992
 20
-12.366894
 30
0.0
 10
-97.682022
 20
-13.618159
 30
0.0
 10
-100.617406
 20
-15.003561
 30
0.0
  0
LWPOLYLINE
  5
1b6
100
AcDbEntity
  8
Patas
 62
7
100
AcDbPolyline
 90
3
 70
0
 10
131.441468
 20
-73.621797
 30
0.0
 10
65.821895
 20
-103.934532
 30
0.0
 10
-81.984558
 20
-12.602020
 30
0.0
  0
SPLINE
  5
1b7
100
AcDbEntity
  8
Patas
 62
7
100
AcDbSpline
 70
8
 71
3
 72
8
 73
4
 74
0
 40
0
 40
0
 40
0
 40
0
 40
1
 40
1
 40
1
 40
1
 10
-156.410815
 20
-62.015137
 30
0.0
 10
-153.588055
 20
-60.796680
 30
0.0
 10
-150.297676
 20
-61.735755
 30
0.0
 10
-148.543230
 20
-64.260571
 30
0.0
  0
SPLINE
  5
1b8
100
AcDbEntity
  8
Patas
 62
7
100
AcDbSpline
 70
8
 71
3
 72
8
 73
4
 74
0
 40
0
 40
0
 40
0
 40
0
 40
1
 40
1
 40
1
 40
1
 10
-148.543230
 20
-64.260571
 30
0.0
 10
-146.506277
 20
-67.190811
 30
0.0
 10
-147.230236
 20
-71.217417
 30
0.0
 10
-150.160246
 20
-73.254653
 30
0.0
  0
SPLINE
  5
1b9
100
AcDbEntity
  8
Patas
 62
7
100
AcDbSpline
 70
8
 71
3
 72
8
 73
4
 74
0
 40
0
 40
0
 40
0
 40
0
 40
1
 40
1
 40
1
 40
1
 10
-150.160246
 20
-73.254653
 30
0.0
 10
-153.090554
 20
-75.292604
 30
0.0
 10
-157.118135
 20
-74.568913
 30
0.0
 10
-159.155630
 20
-71.638180
 30
0.0
  0
SPLINE
  5
1ba
100
AcDbEntity
  8
Patas
 62
7
100
AcDbSpline
 70
8
 71
3
 72
8
 73
4
 74
0
 40
0
 40
0
 40
0
 40
0
 40
1
 40
1
 40
1
 40
1
 10
-159.155630
 20
-71.638180
 30
0.0
 10
-161.193662
 20
-68.707446
 30
0.0
 10
-160.469280
 20
-64.679323
 30
0.0
 10
-157.537852
 20
-62.642259
 30
0.0
  0
SPLINE
  5
1bb
100
AcDbEntity
  8
Patas
 62
7
100
AcDbSpline
 70
8
 71
3
 72
8
 73
4
 74
0
 40
0
 40
0
 40
0
 40
0
 40
1
 40
1
 40
1
 40
1
 10
-157.537852
 20
-62.642259
 30
0.0
 10
-157.184073
 20
-62.396051
 30
0.0
 10
-156.806487
 20
-62.186019
 30
0.0
 10
-156.410815
 20
-62.015137
 30
0.0
  0
LWPOLYLINE
  5
1bc
100
AcDbEntity
  8
Patas
 62
7
100
AcDbPolyline
 90
2
 70
0
 10
-100.617406
 20
-15.003561
 30
0.0
 10
-100.616801
 20
-15.004851
 30
0.0
  0
LWPOLYLINE
  5
1bd
100
AcDbEntity
  8
Patas
 62
7
100
AcDbPolyline
 90
1
 70
1
 10
-156.410815
 20
-62.015137
 30
0.0
  0
SPLINE
  5
1be
100
AcDbEntity
  8
Patas
 62
7
100
AcDbSpline
 70
8
 71
3
 72
8
 73
4
 74
0
 40
0
 40
0
 40
0
 40
0
 40
1
 40
1
 40
1
 40
1
 10
-102.809105
 20
21.866229
 30
0.0
 10
-131.184550
 20
8.474145
 30
0.0
 10
-159.225759
 20
-17.415396
 30
0.0
 10
-166.138896
 20
-24.863933
 30
0.0
  0
LWPOLYLINE
  5
1bf
100
AcDbEntity
  8
Patas
 62
7
100
AcDbPolyline
 90
1
 70
1
 10
-102.809105
 20
21.866229
 30
0.0
  0
SPLINE
  5
1c0
100
AcDbEntity
  8
Patas
 62
7
100
AcDbSpline
 70
8
 71
3
 72
8
 73
4
 74
0
 40
0
 40
0
 40
0
 40
0
 40
1
 40
1
 40
1
 40
1
 10
-166.031176
 20
-24.814172
 30
0.0
 10
-169.382546
 20
-28.052056
 30
0.0
 10
-169.990075
 20
-33.297010
 30
0.0
 10
-167.240172
 20
-37.251893
 30
0.0
  0
LWPOLYLINE
  5
1c1
100
AcDbEntity
  8
Patas
 62
7
100
AcDbPolyline
 90
2
 70
0
 10
-166.138896
 20
-24.863933
 30
0.0
 10
-166.031176
 20
-24.814172
 30
0.0
  0
SPLINE
  5
1c2
100
AcDbEntity
  8
Patas
 62
7
100
AcDbSpline
 70
8
 71
3
 72
8
 73
4
 74
0
 40
0
 40
0
 40
0
 40
0
 40
1
 40
1
 40
1
 40
1
 10
-165.734182
 20
-39.418677
 30
0.0
 10
-162.679203
 20
-43.812320
 30
0.0
 10
-156.684026
 20
-44.889641
 30
0.0
 10
-152.290365
 20
-41.834581
 30
0.0
  0
LWPOLYLINE
  5
1c3
100
AcDbEntity
  8
Patas
 62
7
100
AcDbPolyline
 90
2
 70
0
 10
-167.240172
 20
-37.251893
 30
0.0
 10
-165.734182
 20
-39.418677
 30
0.0
  0
SPLINE
  5
1c4
100
AcDbEntity
  8
Patas
 62
7
100
AcDbSpline
 70
8
 71
3
 72
8
 73
4
 74
0
 40
0
 40
0
 40
0
 40
0
 40
1
 40
1
 40
1
 40
1
 10
56.905539
 20
-77.098318
 30
0.0
 10
57.329503
 20
-77.795062
 30
0.0
 10
58.095140
 20
-78.176911
 30
0.0
 10
58.880236
 20
-78.117587
 30
0.0
  0
LWPOLYLINE
  5
1c5
100
AcDbEntity
  8
Patas
 62
7
100
AcDbPolyline
 90
3
 70
0
 10
-152.290365
 20
-41.834581
 30
0.0
 10
-92.240060
 20
-0.080512
 30
0.0
 10
56.905539
 20
-77.098318
 30
0.0
  0
SPLINE
  5
1c6
100
AcDbEntity
  8
Patas
 62
7
100
AcDbSpline
 70
8
 71
3
 72
8
 73
4
 74
0
 40
0
 40
0
 40
0
 40
0
 40
1
 40
1
 40
1
 40
1
 10
132.681101
 20
-44.180595
 30
0.0
 10
133.756502
 20
-43.683817
 30
0.0
 10
134.221191
 20
-42.418191
 30
0.0
 10
133.724402
 20
-41.342765
 30
0.0
  0
LWPOLYLINE
  5
1c7
100
AcDbEntity
  8
Patas
 62
7
100
AcDbPolyline
 90
5
 70
0
 10
58.880236
 20
-78.117587
 30
0.0
 10
59.251070
 20
-78.309301
 30
0.0
 10
72.097555
 20
-72.274992
 30
0.0
 10
71.996465
 20
-72.213653
 30
0.0
 10
132.681101
 20
-44.180595
 30
0.0
  0
SPLINE
  5
1c8
100
AcDbEntity
  8
Patas
 62
7
100
AcDbSpline
 70
8
 71
3
 72
8
 73
4
 74
0
 40
0
 40
0
 40
0
 40
0
 40
1
 40
1
 40
1
 40
1
 10
132.085464
 20
-37.794871
 30
0.0
 10
131.588675
 20
-36.719445
 30
0.0
 10
130.324399
 20
-36.254163
 30
0.0
 10
129.248998
 20
-36.750940
 30
0.0
  0
LWPOLYLINE
  5
1c9
100
AcDbEntity
  8
Patas
 62
7
100
AcDbPolyline
 90
2
 70
0
 10
133.724402
 20
-41.342765
 30
0.0
 10
132.085464
 20
-37.794871
 30
0.0
  0
SPLINE
  5
1ca
100
AcDbEntity
  8
Patas
 62
7
100
AcDbSpline
 70
8
 71
3
 72
8
 73
4
 74
0
 40
0
 40
0
 40
0
 40
0
 40
1
 40
1
 40
1
 40
1
 10
-84.176873
 20
24.269080
 30
0.0
 10
-87.564582
 20
26.312041
 30
0.0
 10
-91.372058
 20
26.689280
 30
0.0
 10
-94.015777
 20
25.587833
 30
0.0
  0
SPLINE
  5
1cb
100
AcDbEntity
  8
Patas
 62
7
100
AcDbSpline
 70
8
 71
3
 72
8
 73
4
 74
0
 40
0
 40
0
 40
0
 40
0
 40
1
 40
1
 40
1
 40
1
 10
-94.015777
 20
25.587833
 30
0.0
 10
-96.935329
 20
24.504255
 30
0.0
 10
-99.874324
 20
23.252916
 30
0.0
 10
-102.809719
 20
21.867538
 30
0.0
  0
LWPOLYLINE
  5
1cc
100
AcDbEntity
  8
Patas
 62
7
100
AcDbPolyline
 90
3
 70
0
 10
129.248998
 20
-36.750940
 30
0.0
 10
63.629642
 20
-67.063575
 30
0.0
 10
-84.176873
 20
24.269080
 30
0.0
  0
SPLINE
  5
1cd
100
AcDbEntity
  8
Patas
 62
7
100
AcDbSpline
 70
8
 71
3
 72
8
 73
4
 74
0
 40
0
 40
0
 40
0
 40
0
 40
1
 40
1
 40
1
 40
1
 10
-158.603125
 20
-25.144056
 30
0.0
 10
-155.780347
 20
-23.925639
 30
0.0
 10
-152.489994
 20
-24.864657
 30
0.0
 10
-150.735547
 20
-27.389475
 30
0.0
  0
SPLINE
  5
1ce
100
AcDbEntity
  8
Patas
 62
7
100
AcDbSpline
 70
8
 71
3
 72
8
 73
4
 74
0
 40
0
 40
0
 40
0
 40
0
 40
1
 40
1
 40
1
 40
1
 10
-150.735547
 20
-27.389475
 30
0.0
 10
-148.698587
 20
-30.319729
 30
0.0
 10
-149.422546
 20
-34.346337
 30
0.0
 10
-152.352554
 20
-36.383574
 30
0.0
  0
SPLINE
  5
1cf
100
AcDbEntity
  8
Patas
 62
7
100
AcDbSpline
 70
8
 71
3
 72
8
 73
4
 74
0
 40
0
 40
0
 40
0
 40
0
 40
1
 40
1
 40
1
 40
1
 10
-152.352554
 20
-36.383574
 30
0.0
 10
-155.282868
 20
-38.421514
 30
0.0
 10
-159.310440
 20
-37.697840
 30
0.0
 10
-161.347945
 20
-34.767089
 30
0.0
  0
SPLINE
  5
1d0
100
AcDbEntity
  8
Patas
 62
7
100
AcDbSpline
 70
8
 71
3
 72
8
 73
4
 74
0
 40
0
 40
0
 40
0
 40
0
 40
1
 40
1
 40
1
 40
1
 10
-161.347945
 20
-34.767089
 30
0.0
 10
-163.385974
 20
-31.836360
 30
0.0
 10
-162.661590
 20
-27.808244
 30
0.0
 10
-159.730166
 20
-25.771165
 30
0.0
  0
SPLINE
  5
1d1
100
AcDbEntity
  8
Patas
 62
7
100
AcDbSpline
 70
8
 71
3
 72
8
 73
4
 74
0
 40
0
 40
0
 40
0
 40
0
 40
1
 40
1
 40
1
 40
1
 10
-159.730166
 20
-25.771165
 30
0.0
 10
-159.376374
 20
-25.524987
 30
0.0
 10
-158.998786
 20
-25.314965
 30
0.0
 10
-158.603125
 20
-25.144056
 30
0.0
  0
LWPOLYLINE
  5
1d2
100
AcDbEntity
  8
Patas
 62
7
100
AcDbPolyline
 90
2
 70
0
 10
-102.809719
 20
21.867538
 30
0.0
 10
-102.809105
 20
21.866229
 30
0.0
  0
LWPOLYLINE
  5
1d3
100
AcDbEntity
  8
Patas
 62
7
100
AcDbPolyline
 90
1
 70
1
 10
-158.603125
 20
-25.144056
 30
0.0
  0
SPLINE
  5
1d4
100
AcDbEntity
  8
Patas
 62
7
100
AcDbSpline
 70
8
 71
3
 72
8
 73
4
 74
0
 40
0
 40
0
 40
0
 40
0
 40
1
 40
1
 40
1
 40
1
 10
-109.613653
 20
62.489803
 30
0.0
 10
-137.989095
 20
49.097720
 30
0.0
 10
-166.030304
 20
23.208179
 30
0.0
 10
-172.943438
 20
15.759644
 30
0.0
  0
LWPOLYLINE
  5
1d5
100
AcDbEntity
  8
Patas
 62
7
100
AcDbPolyline
 90
1
 70
1
 10
-109.613653
 20
62.489803
 30
0.0
  0
SPLINE
  5
1d6
100
AcDbEntity
  8
Patas
 62
7
100
AcDbSpline
 70
8
 71
3
 72
8
 73
4
 74
0
 40
0
 40
0
 40
0
 40
0
 40
1
 40
1
 40
1
 40
1
 10
-172.835615
 20
15.809453
 30
0.0
 10
-176.186977
 20
12.571572
 30
0.0
 10
-176.794517
 20
7.326613
 30
0.0
 10
-174.044601
 20
3.371736
 30
0.0
  0
LWPOLYLINE
  5
1d7
100
AcDbEntity
  8
Patas
 62
7
100
AcDbPolyline
 90
2
 70
0
 10
-172.943438
 20
15.759644
 30
0.0
 10
-172.835615
 20
15.809453
 30
0.0
  0
SPLINE
  5
1d8
100
AcDbEntity
  8
Patas
 62
7
100
AcDbSpline
 70
8
 71
3
 72
8
 73
4
 74
0
 40
0
 40
0
 40
0
 40
0
 40
1
 40
1
 40
1
 40
1
 10
-172.538629
 20
1.204943
 30
0.0
 10
-169.483630
 20
-3.188722
 30
0.0
 10
-163.488473
 20
-4.266020
 30
0.0
 10
-159.094806
 20
-1.210958
 30
0.0
  0
LWPOLYLINE
  5
1d9
100
AcDbEntity
  8
Patas
 62
7
100
AcDbPolyline
 90
2
 70
0
 10
-174.044601
 20
3.371736
 30
0.0
 10
-172.538629
 20
1.204943
 30
0.0
  0
SPLINE
  5
1da
100
AcDbEntity
  8
Patas
 62
7
100
AcDbSpline
 70
8
 71
3
 72
8
 73
4
 74
0
 40
0
 40
0
 40
0
 40
0
 40
1
 40
1
 40
1
 40
1
 10
50.101077
 20
-36.474705
 30
0.0
 10
50.525040
 20
-37.171449
 30
0.0
 10
51.290691
 20
-37.553259
 30
0.0
 10
52.075799
 20
-37.493962
 30
0.0
  0
LWPOLYLINE
  5
1db
100
AcDbEntity
  8
Patas
 62
7
100
AcDbPolyline
 90
3
 70
0
 10
-159.094806
 20
-1.210958
 30
0.0
 10
-99.044479
 20
40.543090
 30
0.0
 10
50.101077
 20
-36.474705
 30
0.0
  0
SPLINE
  5
1dc
100
AcDbEntity
  8
Patas
 62
7
100
AcDbSpline
 70
8
 71
3
 72
8
 73
4
 74
0
 40
0
 40
0
 40
0
 40
0
 40
1
 40
1
 40
1
 40
1
 10
125.876665
 20
-3.556969
 30
0.0
 10
126.952065
 20
-3.060192
 30
0.0
 10
127.416754
 20
-1.794566
 30
0.0
 10
126.919965
 20
-0.719140
 30
0.0
  0
LWPOLYLINE
  5
1dd
100
AcDbEntity
  8
Patas
 62
7
100
AcDbPolyline
 90
5
 70
0
 10
52.075799
 20
-37.493962
 30
0.0
 10
52.446633
 20
-37.685676
 30
0.0
 10
65.293144
 20
-31.651355
 30
0.0
 10
65.192054
 20
-31.590015
 30
0.0
 10
125.876665
 20
-3.556969
 30
0.0
  0
SPLINE
  5
1de
100
AcDbEntity
  8
Patas
 62
7
100
AcDbSpline
 70
8
 71
3
 72
8
 73
4
 74
0
 40
0
 40
0
 40
0
 40
0
 40
1
 40
1
 40
1
 40
1
 10
125.281028
 20
2.828755
 30
0.0
 10
124.784238
 20
3.904181
 30
0.0
 10
123.519962
 20
4.369462
 30
0.0
 10
122.444562
 20
3.872685
 30
0.0
  0
LWPOLYLINE
  5
1df
100
AcDbEntity
  8
Patas
 62
7
100
AcDbPolyline
 90
2
 70
0
 10
126.919965
 20
-0.719140
 30
0.0
 10
125.281028
 20
2.828755
 30
0.0
  0
SPLINE
  5
1e0
100
AcDbEntity
  8
Patas
 62
7
100
AcDbSpline
 70
8
 71
3
 72
8
 73
4
 74
0
 40
0
 40
0
 40
0
 40
0
 40
1
 40
1
 40
1
 40
1
 10
-90.981401
 20
64.892632
 30
0.0
 10
-94.369107
 20
66.935595
 30
0.0
 10
-98.176606
 20
67.312854
 30
0.0
 10
-100.820317
 20
66.211410
 30
0.0
  0
SPLINE
  5
1e1
100
AcDbEntity
  8
Patas
 62
7
100
AcDbSpline
 70
8
 71
3
 72
8
 73
4
 74
0
 40
0
 40
0
 40
0
 40
0
 40
1
 40
1
 40
1
 40
1
 10
-100.820317
 20
66.211410
 30
0.0
 10
-103.739876
 20
65.127829
 30
0.0
 10
-106.678864
 20
63.876494
 30
0.0
 10
-109.614247
 20
62.491090
 30
0.0
  0
LWPOLYLINE
  5
1e2
100
AcDbEntity
  8
Patas
 62
7
100
AcDbPolyline
 90
3
 70
0
 10
122.444562
 20
3.872685
 30
0.0
 10
56.825102
 20
-26.439998
 30
0.0
 10
-90.981401
 20
64.892632
 30
0.0
  0
SPLINE
  5
1e3
100
AcDbEntity
  8
Patas
 62
7
100
AcDbSpline
 70
8
 71
3
 72
8
 73
4
 74
0
 40
0
 40
0
 40
0
 40
0
 40
1
 40
1
 40
1
 40
1
 10
-165.407667
 20
15.479520
 30
0.0
 10
-162.584897
 20
16.697934
 30
0.0
 10
-159.294537
 20
15.758888
 30
0.0
 10
-157.540088
 20
13.234071
 30
0.0
  0
SPLINE
  5
1e4
100
AcDbEntity
  8
Patas
 62
7
100
AcDbSpline
 70
8
 71
3
 72
8
 73
4
 74
0
 40
0
 40
0
 40
0
 40
0
 40
1
 40
1
 40
1
 40
1
 10
-157.540088
 20
13.234071
 30
0.0
 10
-155.503127
 20
10.303849
 30
0.0
 10
-156.227089
 20
6.277239
 30
0.0
 10
-159.157091
 20
4.240005
 30
0.0
  0
SPLINE
  5
1e5
100
AcDbEntity
  8
Patas
 62
7
100
AcDbSpline
 70
8
 71
3
 72
8
 73
4
 74
0
 40
0
 40
0
 40
0
 40
0
 40
1
 40
1
 40
1
 40
1
 10
-159.157091
 20
4.240005
 30
0.0
 10
-162.087420
 20
2.202058
 30
0.0
 10
-166.114990
 20
2.925733
 30
0.0
 10
-168.152480
 20
5.856492
 30
0.0
  0
SPLINE
  5
1e6
100
AcDbEntity
  8
Patas
 62
7
100
AcDbSpline
 70
8
 71
3
 72
8
 73
4
 74
0
 40
0
 40
0
 40
0
 40
0
 40
1
 40
1
 40
1
 40
1
 10
-168.152480
 20
5.856492
 30
0.0
 10
-170.190516
 20
8.787217
 30
0.0
 10
-169.466127
 20
12.815335
 30
0.0
 10
-166.534697
 20
14.852385
 30
0.0
  0
SPLINE
  5
1e7
100
AcDbEntity
  8
Patas
 62
7
100
AcDbSpline
 70
8
 71
3
 72
8
 73
4
 74
0
 40
0
 40
0
 40
0
 40
0
 40
1
 40
1
 40
1
 40
1
 10
-166.534697
 20
14.852385
 30
0.0
 10
-166.180917
 20
15.098558
 30
0.0
 10
-165.803321
 20
15.308584
 30
0.0
 10
-165.407656
 20
15.479495
 30
0.0
  0
LWPOLYLINE
  5
1e8
100
AcDbEntity
  8
Patas
 62
7
100
AcDbPolyline
 90
2
 70
0
 10
-109.614247
 20
62.491090
 30
0.0
 10
-109.613653
 20
62.489803
 30
0.0
  0
LWPOLYLINE
  5
1e9
100
AcDbEntity
  8
Patas
 62
7
100
AcDbPolyline
 90
1
 70
1
 10
-165.407656
 20
15.479495
 30
0.0
  0
SPLINE
  5
1ea
100
AcDbEntity
  8
Patas
 62
7
100
AcDbSpline
 70
8
 71
3
 72
8
 73
4
 74
0
 40
0
 40
0
 40
0
 40
0
 40
1
 40
1
 40
1
 40
1
 10
-111.805968
 20
99.360884
 30
0.0
 10
-140.181410
 20
85.968801
 30
0.0
 10
-168.222619
 20
60.079260
 30
0.0
 10
-175.135754
 20
52.630725
 30
0.0
  0
LWPOLYLINE
  5
1eb
100
AcDbEntity
  8
Patas
 62
7
100
AcDbPolyline
 90
1
 70
1
 10
-111.805968
 20
99.360884
 30
0.0
  0
SPLINE
  5
1ec
100
AcDbEntity
  8
Patas
 62
7
100
AcDbSpline
 70
8
 71
3
 72
8
 73
4
 74
0
 40
0
 40
0
 40
0
 40
0
 40
1
 40
1
 40
1
 40
1
 10
-175.027931
 20
52.680534
 30
0.0
 10
-178.379293
 20
49.442653
 30
0.0
 10
-178.986832
 20
44.197694
 30
0.0
 10
-176.236917
 20
40.242817
 30
0.0
  0
LWPOLYLINE
  5
1ed
100
AcDbEntity
  8
Patas
 62
7
100
AcDbPolyline
 90
2
 70
0
 10
-175.135754
 20
52.630725
 30
0.0
 10
-175.027931
 20
52.680534
 30
0.0
  0
SPLINE
  5
1ee
100
AcDbEntity
  8
Patas
 62
7
100
AcDbSpline
 70
8
 71
3
 72
8
 73
4
 74
0
 40
0
 40
0
 40
0
 40
0
 40
1
 40
1
 40
1
 40
1
 10
-174.730944
 20
38.076024
 30
0.0
 10
-171.675957
 20
33.682385
 30
0.0
 10
-165.680788
 20
32.605061
 30
0.0
 10
-161.287122
 20
35.660123
 30
0.0
  0
LWPOLYLINE
  5
1ef
100
AcDbEntity
  8
Patas
 62
7
100
AcDbPolyline
 90
2
 70
0
 10
-176.236917
 20
40.242817
 30
0.0
 10
-174.730944
 20
38.076024
 30
0.0
  0
SPLINE
  5
1f0
100
AcDbEntity
  8
Patas
 62
7
100
AcDbSpline
 70
8
 71
3
 72
8
 73
4
 74
0
 40
0
 40
0
 40
0
 40
0
 40
1
 40
1
 40
1
 40
1
 10
47.908787
 20
0.396388
 30
0.0
 10
48.332751
 20
-0.300356
 30
0.0
 10
49.098388
 20
-0.682204
 30
0.0
 10
49.883484
 20
-0.622881
 30
0.0
  0
LWPOLYLINE
  5
1f1
100
AcDbEntity
  8
Patas
 62
7
100
AcDbPolyline
 90
3
 70
0
 10
-161.287122
 20
35.660123
 30
0.0
 10
-101.236807
 20
77.414197
 30
0.0
 10
47.908787
 20
0.396388
 30
0.0
  0
SPLINE
  5
1f2
100
AcDbEntity
  8
Patas
 62
7
100
AcDbSpline
 70
8
 71
3
 72
8
 73
4
 74
0
 40
0
 40
0
 40
0
 40
0
 40
1
 40
1
 40
1
 40
1
 10
123.684350
 20
33.314112
 30
0.0
 10
124.759750
 20
33.810889
 30
0.0
 10
125.224451
 20
35.076490
 30
0.0
 10
124.727662
 20
36.151916
 30
0.0
  0
LWPOLYLINE
  5
1f3
100
AcDbEntity
  8
Patas
 62
7
100
AcDbPolyline
 90
5
 70
0
 10
49.883484
 20
-0.622881
 30
0.0
 10
50.254318
 20
-0.814595
 30
0.0
 10
63.100803
 20
5.219714
 30
0.0
 10
62.999713
 20
5.281054
 30
0.0
 10
123.684350
 20
33.314112
 30
0.0
  0
SPLINE
  5
1f4
100
AcDbEntity
  8
Patas
 62
7
100
AcDbSpline
 70
8
 71
3
 72
8
 73
4
 74
0
 40
0
 40
0
 40
0
 40
0
 40
1
 40
1
 40
1
 40
1
 10
123.088724
 20
39.699810
 30
0.0
 10
122.591923
 20
40.775262
 30
0.0
 10
121.327659
 20
41.240518
 30
0.0
 10
120.252258
 20
40.743740
 30
0.0
  0
LWPOLYLINE
  5
1f5
100
AcDbEntity
  8
Patas
 62
7
100
AcDbPolyline
 90
2
 70
0
 10
124.727662
 20
36.151916
 30
0.0
 10
123.088724
 20
39.699810
 30
0.0
  0
SPLINE
  5
1f6
100
AcDbEntity
  8
Patas
 62
7
100
AcDbSpline
 70
8
 71
3
 72
8
 73
4
 74
0
 40
0
 40
0
 40
0
 40
0
 40
1
 40
1
 40
1
 40
1
 10
-93.173600
 20
101.763798
 30
0.0
 10
-96.561305
 20
103.806761
 30
0.0
 10
-100.368792
 20
104.183995
 30
0.0
 10
-103.012503
 20
103.082551
 30
0.0
  0
SPLINE
  5
1f7
100
AcDbEntity
  8
Patas
 62
7
100
AcDbSpline
 70
8
 71
3
 72
8
 73
4
 74
0
 40
0
 40
0
 40
0
 40
0
 40
1
 40
1
 40
1
 40
1
 10
-103.012503
 20
103.082551
 30
0.0
 10
-105.932063
 20
101.998969
 30
0.0
 10
-108.871051
 20
100.747634
 30
0.0
 10
-111.806446
 20
99.362256
 30
0.0
  0
LWPOLYLINE
  5
1f8
100
AcDbEntity
  8
Patas
 62
7
100
AcDbPolyline
 90
3
 70
0
 10
120.252258
 20
40.743740
 30
0.0
 10
54.632927
 20
10.431117
 30
0.0
 10
-93.173600
 20
101.763798
 30
0.0
  0
SPLINE
  5
1f9
100
AcDbEntity
  8
Patas
 62
7
100
AcDbSpline
 70
8
 71
3
 72
8
 73
4
 74
0
 40
0
 40
0
 40
0
 40
0
 40
1
 40
1
 40
1
 40
1
 10
-167.599983
 20
52.350601
 30
0.0
 10
-164.777212
 20
53.569015
 30
0.0
 10
-161.486838
 20
52.630006
 30
0.0
 10
-159.732389
 20
50.105190
 30
0.0
  0
SPLINE
  5
1fa
100
AcDbEntity
  8
Patas
 62
7
100
AcDbSpline
 70
8
 71
3
 72
8
 73
4
 74
0
 40
0
 40
0
 40
0
 40
0
 40
1
 40
1
 40
1
 40
1
 10
-159.732389
 20
50.105190
 30
0.0
 10
-157.695442
 20
47.174930
 30
0.0
 10
-158.419404
 20
43.148321
 30
0.0
 10
-161.349406
 20
41.111086
 30
0.0
  0
SPLINE
  5
1fb
100
AcDbEntity
  8
Patas
 62
7
100
AcDbSpline
 70
8
 71
3
 72
8
 73
4
 74
0
 40
0
 40
0
 40
0
 40
0
 40
1
 40
1
 40
1
 40
1
 10
-161.349406
 20
41.111086
 30
0.0
 10
-164.279710
 20
39.073151
 30
0.0
 10
-168.307305
 20
39.796814
 30
0.0
 10
-170.344795
 20
42.727573
 30
0.0
  0
SPLINE
  5
1fc
100
AcDbEntity
  8
Patas
 62
7
100
AcDbSpline
 70
8
 71
3
 72
8
 73
4
 74
0
 40
0
 40
0
 40
0
 40
0
 40
1
 40
1
 40
1
 40
1
 10
-170.344795
 20
42.727573
 30
0.0
 10
-172.382831
 20
45.658298
 30
0.0
 10
-171.658442
 20
49.686416
 30
0.0
 10
-168.727024
 20
51.723492
 30
0.0
  0
SPLINE
  5
1fd
100
AcDbEntity
  8
Patas
 62
7
100
AcDbSpline
 70
8
 71
3
 72
8
 73
4
 74
0
 40
0
 40
0
 40
0
 40
0
 40
1
 40
1
 40
1
 40
1
 10
-168.727024
 20
51.723492
 30
0.0
 10
-168.373219
 20
51.969677
 30
0.0
 10
-167.995648
 20
52.179691
 30
0.0
 10
-167.599983
 20
52.350601
 30
0.0
  0
LWPOLYLINE
  5
1fe
100
AcDbEntity
  8
Patas
 62
7
100
AcDbPolyline
 90
2
 70
0
 10
-111.806446
 20
99.362256
 30
0.0
 10
-111.805968
 20
99.360884
 30
0.0
  0
SPLINE
  5
1ff
100
AcDbEntity
  8
Patas
 62
7
100
AcDbSpline
 70
8
 71
3
 72
8
 73
4
 74
0
 40
0
 40
0
 40
0
 40
0
 40
1
 40
1
 40
1
 40
1
 10
-559.668813
 20
232.330677
 30
0.0
 10
-572.030164
 20
232.209071
 30
0.0
 10
-578.513792
 20
229.691650
 30
0.0
 10
-589.166362
 20
226.992784
 30
0.0
  0
LWPOLYLINE
  5
200
100
AcDbEntity
  8
Patas
 62
7
100
AcDbPolyline
 90
1
 70
1
 10
-167.599983
 20
52.350601
 30
0.0
  0
SPLINE
  5
201
100
AcDbEntity
  8
Patas
 62
7
100
AcDbSpline
 70
8
 71
3
 72
8
 73
4
 74
0
 40
0
 40
0
 40
0
 40
0
 40
1
 40
1
 40
1
 40
1
 10
-588.797206
 20
226.817036
 30
0.0
 10
-591.841871
 20
226.143553
 30
0.0
 10
-594.498274
 20
224.009263
 30
0.0
 10
-595.714224
 20
220.871169
 30
0.0
  0
LWPOLYLINE
  5
202
100
AcDbEntity
  8
Patas
 62
7
100
AcDbPolyline
 90
2
 70
0
 10
-589.166362
 20
226.992784
 30
0.0
 10
-588.797206
 20
226.817036
 30
0.0
  0
SPLINE
  5
203
100
AcDbEntity
  8
Patas
 62
7
100
AcDbSpline
 70
8
 71
3
 72
8
 73
4
 74
0
 40
0
 40
0
 40
0
 40
0
 40
1
 40
1
 40
1
 40
1
 10
-596.667827
 20
218.410271
 30
0.0
 10
-598.601254
 20
213.420302
 30
0.0
 10
-596.141150
 20
207.847134
 30
0.0
 10
-591.151238
 20
205.913735
 30
0.0
  0
LWPOLYLINE
  5
204
100
AcDbEntity
  8
Patas
 62
7
100
AcDbPolyline
 90
2
 70
0
 10
-595.714224
 20
220.871169
 30
0.0
 10
-596.667827
 20
218.410271
 30
0.0
  0
SPLINE
  5
205
100
AcDbEntity
  8
Patas
 62
7
100
AcDbSpline
 70
8
 71
3
 72
8
 73
4
 74
0
 40
0
 40
0
 40
0
 40
0
 40
1
 40
1
 40
1
 40
1
 10
-539.336750
 20
-58.352797
 30
0.0
 10
-539.632630
 20
-58.953005
 30
0.0
 10
-539.638016
 20
-59.681934
 30
0.0
 10
-539.285443
 20
-60.312756
 30
0.0
  0
LWPOLYLINE
  5
206
100
AcDbEntity
  8
Patas
 62
7
100
AcDbPolyline
 90
4
 70
0
 10
-591.151238
 20
205.913735
 30
0.0
 10
-520.498885
 20
178.538712
 30
0.0
 10
-520.447578
 20
178.569609
 30
0.0
 10
-539.336750
 20
-58.352797
 30
0.0
  0
SPLINE
  5
207
100
AcDbEntity
  8
Patas
 62
7
100
AcDbSpline
 70
8
 71
3
 72
8
 73
4
 74
0
 40
0
 40
0
 40
0
 40
0
 40
1
 40
1
 40
1
 40
1
 10
-458.562472
 20
-204.751814
 30
0.0
 10
-457.992652
 20
-205.771465
 30
0.0
 10
-456.713943
 20
-206.133165
 30
0.0
 10
-455.694321
 20
-205.563402
 30
0.0
  0
LWPOLYLINE
  5
208
100
AcDbEntity
  8
Patas
 62
7
100
AcDbPolyline
 90
5
 70
0
 10
-539.285443
 20
-60.312756
 30
0.0
 10
-531.246359
 20
-74.697534
 30
0.0
 10
-528.981732
 20
-78.801987
 30
0.0
 10
-528.976063
 20
-78.759184
 30
0.0
 10
-458.562472
 20
-204.751814
 30
0.0
  0
SPLINE
  5
209
100
AcDbEntity
  8
Patas
 62
7
100
AcDbSpline
 70
8
 71
3
 72
8
 73
4
 74
0
 40
0
 40
0
 40
0
 40
0
 40
1
 40
1
 40
1
 40
1
 10
-452.329569
 20
-203.683975
 30
0.0
 10
-451.309946
 20
-203.114126
 30
0.0
 10
-450.948217
 20
-201.833943
 30
0.0
 10
-451.518038
 20
-200.814321
 30
0.0
  0
LWPOLYLINE
  5
20a
100
AcDbEntity
  8
Patas
 62
7
100
AcDbPolyline
 90
2
 70
0
 10
-455.694321
 20
-205.563402
 30
0.0
 10
-452.329569
 20
-203.683975
 30
0.0
  0
SPLINE
  5
20b
100
AcDbEntity
  8
Patas
 62
7
100
AcDbSpline
 70
8
 71
3
 72
8
 73
4
 74
0
 40
0
 40
0
 40
0
 40
0
 40
1
 40
1
 40
1
 40
1
 10
-498.431877
 20
198.671556
 30
0.0
 10
-501.999335
 20
203.306173
 30
0.0
 10
-540.427918
 20
231.889493
 30
0.0
 10
-553.982513
 20
232.227751
 30
0.0
  0
SPLINE
  5
20c
100
AcDbEntity
  8
Patas
 62
7
100
AcDbSpline
 70
8
 71
3
 72
8
 73
4
 74
0
 40
0
 40
0
 40
0
 40
0
 40
1
 40
1
 40
1
 40
1
 10
-553.982513
 20
232.227751
 30
0.0
 10
-556.017647
 20
232.314775
 30
0.0
 10
-557.903140
 20
232.345956
 30
0.0
 10
-559.669039
 20
232.328665
 30
0.0
  0
LWPOLYLINE
  5
20d
100
AcDbEntity
  8
Patas
 62
7
100
AcDbPolyline
 90
3
 70
0
 10
-451.518038
 20
-200.814321
 30
0.0
 10
-527.300447
 20
-65.217005
 30
0.0
 10
-498.431877
 20
198.671556
 30
0.0
  0
SPLINE
  5
20e
100
AcDbEntity
  8
Patas
 62
7
100
AcDbSpline
 70
8
 71
3
 72
8
 73
4
 74
0
 40
0
 40
0
 40
0
 40
0
 40
1
 40
1
 40
1
 40
1
 10
-584.338224
 20
221.507008
 30
0.0
 10
-583.536671
 20
221.507008
 30
0.0
 10
-582.741893
 20
221.360173
 30
0.0
 10
-581.994482
 20
221.070416
 30
0.0
  0
SPLINE
  5
20f
100
AcDbEntity
  8
Patas
 62
7
100
AcDbSpline
 70
8
 71
3
 72
8
 73
4
 74
0
 40
0
 40
0
 40
0
 40
0
 40
1
 40
1
 40
1
 40
1
 10
-581.994482
 20
221.070416
 30
0.0
 10
-578.666409
 20
219.780709
 30
0.0
 10
-577.014293
 20
216.036992
 30
0.0
 10
-578.304539
 20
212.709118
 30
0.0
  0
SPLINE
  5
210
100
AcDbEntity
  8
Patas
 62
7
100
AcDbSpline
 70
8
 71
3
 72
8
 73
4
 74
0
 40
0
 40
0
 40
0
 40
0
 40
1
 40
1
 40
1
 40
1
 10
-578.304539
 20
212.709118
 30
0.0
 10
-579.594331
 20
209.381868
 30
0.0
 10
-583.336970
 20
207.729921
 30
0.0
 10
-586.664419
 20
209.019175
 30
0.0
  0
SPLINE
  5
211
100
AcDbEntity
  8
Patas
 62
7
100
AcDbSpline
 70
8
 71
3
 72
8
 73
4
 74
0
 40
0
 40
0
 40
0
 40
0
 40
1
 40
1
 40
1
 40
1
 10
-586.664419
 20
209.019175
 30
0.0
 10
-589.992236
 20
210.308343
 30
0.0
 10
-591.644920
 20
214.051153
 30
0.0
 10
-590.355808
 20
217.379083
 30
0.0
  0
SPLINE
  5
212
100
AcDbEntity
  8
Patas
 62
7
100
AcDbSpline
 70
8
 71
3
 72
8
 73
4
 74
0
 40
0
 40
0
 40
0
 40
0
 40
1
 40
1
 40
1
 40
1
 10
-590.355808
 20
217.379083
 30
0.0
 10
-589.393134
 20
219.864331
 30
0.0
 10
-587.003414
 20
221.503606
 30
0.0
 10
-584.338224
 20
221.507008
 30
0.0
  0
LWPOLYLINE
  5
213
100
AcDbEntity
  8
Patas
 62
7
100
AcDbPolyline
 90
2
 70
0
 10
-559.669039
 20
232.328665
 30
0.0
 10
-559.668813
 20
232.330677
 30
0.0
  0
SPLINE
  5
214
100
AcDbEntity
  8
Patas
 62
7
100
AcDbSpline
 70
8
 71
3
 72
8
 73
4
 74
0
 40
0
 40
0
 40
0
 40
0
 40
1
 40
1
 40
1
 40
1
 10
93.891373
 20
-224.021027
 30
0.0
 10
77.891669
 20
-158.990352
 30
0.0
 10
11.919855
 20
-125.605375
 30
0.0
 10
-53.183452
 20
-125.605375
 30
0.0
  0
SPLINE
  5
215
100
AcDbEntity
  8
Patas
 62
7
100
AcDbSpline
 70
8
 71
3
 72
8
 73
4
 74
0
 40
0
 40
0
 40
0
 40
0
 40
1
 40
1
 40
1
 40
1
 10
-53.183452
 20
-125.605375
 30
0.0
 10
-118.286759
 20
-125.605375
 30
0.0
 10
-182.387764
 20
-158.990352
 30
0.0
 10
-194.380186
 20
-224.021027
 30
0.0
  0
LWPOLYLINE
  5
216
100
AcDbEntity
  8
Patas
 62
7
100
AcDbPolyline
 90
1
 70
1
 10
-584.338224
 20
221.507008
 30
0.0
  0
SPLINE
  5
217
100
AcDbEntity
  8
Patas
 62
7
100
AcDbSpline
 70
8
 71
3
 72
8
 73
4
 74
0
 40
0
 40
0
 40
0
 40
0
 40
1
 40
1
 40
1
 40
1
 10
-183.257490
 20
-223.951294
 30
0.0
 10
-168.585902
 20
-160.435862
 30
0.0
 10
-111.454072
 20
-129.715563
 30
0.0
 10
-53.393074
 20
-129.258320
 30
0.0
  0
SPLINE
  5
218
100
AcDbEntity
  8
Patas
 62
7
100
AcDbSpline
 70
8
 71
3
 72
8
 73
4
 74
0
 40
0
 40
0
 40
0
 40
0
 40
1
 40
1
 40
1
 40
1
 10
-53.393074
 20
-129.258320
 30
0.0
 10
8.413767
 20
-128.771575
 30
0.0
 10
71.272602
 20
-163.042985
 30
0.0
 10
85.079764
 20
-224.020942
 30
0.0
  0
LWPOLYLINE
  5
219
100
AcDbEntity
  8
Patas
 62
7
100
AcDbPolyline
 90
2
 70
0
 10
-194.380186
 20
-224.021027
 30
0.0
 10
-183.257490
 20
-223.951294
 30
0.0
  0
SPLINE
  5
21a
100
AcDbEntity
  8
Patas
 62
7
100
AcDbSpline
 70
8
 71
3
 72
8
 73
4
 74
0
 40
0
 40
0
 40
0
 40
0
 40
1
 40
1
 40
1
 40
1
 10
62.781392
 20
-217.951257
 30
0.0
 10
50.233691
 20
-162.191520
 30
0.0
 10
-1.504403
 20
-133.565978
 30
0.0
 10
-52.561361
 20
-133.565978
 30
0.0
  0
SPLINE
  5
21b
100
AcDbEntity
  8
Patas
 62
7
100
AcDbSpline
 70
8
 71
3
 72
8
 73
4
 74
0
 40
0
 40
0
 40
0
 40
0
 40
1
 40
1
 40
1
 40
1
 10
-52.561361
 20
-133.565978
 30
0.0
 10
-103.618318
 20
-133.565978
 30
0.0
 10
-153.889257
 20
-162.191520
 30
0.0
 10
-163.294243
 20
-217.951257
 30
0.0
  0
LWPOLYLINE
  5
21c
100
AcDbEntity
  8
Patas
 62
7
100
AcDbPolyline
 90
2
 70
0
 10
85.079764
 20
-224.020942
 30
0.0
 10
93.891373
 20
-224.020942
 30
0.0
  0
SPLINE
  5
21d
100
AcDbEntity
  8
Patas
 62
7
100
AcDbSpline
 70
8
 71
3
 72
8
 73
4
 74
0
 40
0
 40
0
 40
0
 40
0
 40
1
 40
1
 40
1
 40
1
 10
-154.571329
 20
-217.891446
 30
0.0
 10
-143.065191
 20
-163.430949
 30
0.0
 10
-98.259817
 20
-137.090200
 30
0.0
 10
-52.725770
 20
-136.698143
 30
0.0
  0
SPLINE
  5
21e
100
AcDbEntity
  8
Patas
 62
7
100
AcDbSpline
 70
8
 71
3
 72
8
 73
4
 74
0
 40
0
 40
0
 40
0
 40
0
 40
1
 40
1
 40
1
 40
1
 10
-52.725770
 20
-136.698143
 30
0.0
 10
-4.254038
 20
-136.280789
 30
0.0
 10
45.042718
 20
-165.666396
 30
0.0
 10
55.870923
 20
-217.951200
 30
0.0
  0
LWPOLYLINE
  5
21f
100
AcDbEntity
  8
Patas
 62
7
100
AcDbPolyline
 90
2
 70
0
 10
-163.294243
 20
-217.951257
 30
0.0
 10
-154.571329
 20
-217.891446
 30
0.0
  0
SPLINE
  5
220
100
AcDbEntity
  8
Patas
 62
7
100
AcDbSpline
 70
8
 71
3
 72
8
 73
4
 74
0
 40
0
 40
0
 40
0
 40
0
 40
1
 40
1
 40
1
 40
1
 10
78.305953
 20
-171.520716
 30
0.0
 10
63.870094
 20
-125.116682
 30
0.0
 10
4.346561
 20
-101.294093
 30
0.0
 10
-54.393364
 20
-101.294093
 30
0.0
  0
SPLINE
  5
221
100
AcDbEntity
  8
Patas
 62
7
100
AcDbSpline
 70
8
 71
3
 72
8
 73
4
 74
0
 40
0
 40
0
 40
0
 40
0
 40
1
 40
1
 40
1
 40
1
 10
-54.393364
 20
-101.294093
 30
0.0
 10
-113.133260
 20
-101.294093
 30
0.0
 10
-170.968847
 20
-125.116682
 30
0.0
 10
-181.789087
 20
-171.520716
 30
0.0
  0
LWPOLYLINE
  5
222
100
AcDbEntity
  8
Patas
 62
7
100
AcDbPolyline
 90
2
 70
0
 10
55.870923
 20
-217.951200
 30
0.0
 10
62.781392
 20
-217.951200
 30
0.0
  0
SPLINE
  5
223
100
AcDbEntity
  8
Patas
 62
7
100
AcDbSpline
 70
8
 71
3
 72
8
 73
4
 74
0
 40
0
 40
0
 40
0
 40
0
 40
1
 40
1
 40
1
 40
1
 10
-171.753562
 20
-171.471110
 30
0.0
 10
-158.516022
 20
-126.148323
 30
0.0
 10
-106.968444
 20
-104.227157
 30
0.0
 10
-54.582491
 20
-103.900890
 30
0.0
  0
SPLINE
  5
224
100
AcDbEntity
  8
Patas
 62
7
100
AcDbSpline
 70
8
 71
3
 72
8
 73
4
 74
0
 40
0
 40
0
 40
0
 40
0
 40
1
 40
1
 40
1
 40
1
 10
-54.582491
 20
-103.900890
 30
0.0
 10
1.183153
 20
-103.553561
 30
0.0
 10
57.898006
 20
-128.008701
 30
0.0
 10
70.355622
 20
-171.520858
 30
0.0
  0
LWPOLYLINE
  5
225
100
AcDbEntity
  8
Patas
 62
7
100
AcDbPolyline
 90
2
 70
0
 10
-181.789087
 20
-171.520716
 30
0.0
 10
-171.753562
 20
-171.471110
 30
0.0
  0
LWPOLYLINE
  5
226
100
AcDbEntity
  8
Patas
 62
7
100
AcDbPolyline
 90
2
 70
0
 10
70.355622
 20
-171.520858
 30
0.0
 10
78.305953
 20
-171.520858
 30
0.0
  0
LWPOLYLINE
  5
227
100
AcDbEntity
  8
Patas
 62
1
100
AcDbPolyline
 90
4
 70
1
 10
-651.921392
 20
233.421335
 30
0.0
 10
-638.078647
 20
233.421335
 30
0.0
 10
-638.078647
 20
219.578590
 30
0.0
 10
-651.921392
 20
219.578590
 30
0.0
  0
ENDSEC
  0
SECTION
  2
OBJECTS
  0
DICTIONARY
  5
C
330
0
100
AcDbDictionary
  3
ACAD_GROUP
350
D
  3
ACAD_MLINESTYLE
350
17
  0
DICTIONARY
  5
D
330
C
100
AcDbDictionary
  0
DICTIONARY
  5
1A
330
C
100
AcDbDictionary
  0
DICTIONARY
  5
17
330
C
100
AcDbDictionary
  3
STANDARD
350
18
  0
DICTIONARY
  5
19
330
C
100
AcDbDictionary
  0
ENDSEC
  0
EOF
